<?xml version="1.0" encoding="UTF-8"?>
<svg version="1.1" xmlns="http://www.w3.org/2000/svg" width="577" height="433">
<path d="M0 0 C7.78456961 6.76919096 11.76128653 14.99742962 15.50189209 24.40075684 C16.32793791 26.47628948 17.17140013 28.54395398 18.02001953 30.61035156 C19.13948243 33.33772451 20.2540562 36.06698586 21.36376953 38.79833984 C29.69539774 61.53053911 29.69539774 61.53053911 45.875 78.5 C49.5255744 79.68351955 53.06210298 80.15548916 56.875 80.5 C57.98452026 80.62048706 57.98452026 80.62048706 59.11645508 80.7434082 C66.66313209 81.51918203 74.20281619 81.72140343 81.78222656 81.88815308 C122.93689917 82.83042632 122.93689917 82.83042632 133.875 89.5 C136.89419367 94.0287905 136.52592793 98.1945874 135.875 103.5 C133.29580261 111.95767264 126.95493649 119.23712737 120.875 125.5 C120.215 125.5 119.555 125.5 118.875 125.5 C118.545 126.49 118.215 127.48 117.875 128.5 C117.215 128.5 116.555 128.5 115.875 128.5 C115.545 129.49 115.215 130.48 114.875 131.5 C109.79856035 136.7243442 103.70103228 141.06727475 97.9375 145.5 C97.19048828 146.0775 96.44347656 146.655 95.67382812 147.25 C94.17132958 148.41155194 92.66832275 149.57244671 91.16479492 150.73266602 C88.77252369 152.57909436 86.38103539 154.42648768 83.9921875 156.27734375 C82.91300049 157.1125354 82.91300049 157.1125354 81.81201172 157.96459961 C77.11892705 161.68464113 74.13677455 164.53524759 72.875 170.5 C72.39979523 177.15793119 73.39790873 183.27740439 74.875 189.75 C75.09285156 190.73162109 75.31070313 191.71324219 75.53515625 192.72460938 C77.39671029 200.88798158 79.60834453 208.94125406 81.875 217 C84.41398148 226.04396323 86.86188014 235.08719117 88.9375 244.25 C89.26137695 245.61415039 89.26137695 245.61415039 89.59179688 247.00585938 C90.81396553 252.60431577 91.35752862 257.88591724 89.875 263.5 C86.78785163 267.64559924 83.90026957 269.41611833 78.875 270.5 C61.09950636 272.40451718 41.2572252 260.37498297 26 252.5 C24.87118408 251.91879395 23.74236816 251.33758789 22.5793457 250.73876953 C16.23641005 247.41834412 10.14621325 243.88191483 4.17382812 239.93164062 C-1.86357915 236.17172598 -7.39257647 235.992741 -14.125 237.5 C-21.22264493 239.70619514 -27.89770096 243.24630283 -34.59692383 246.43139648 C-40.26174693 249.11893163 -45.97227719 251.64215955 -51.75390625 254.0703125 C-53.98249176 255.01546001 -56.19922911 255.98910074 -58.40234375 256.9921875 C-87.92438394 270.28916243 -87.92438394 270.28916243 -101.125 267.5 C-105.63789907 265.72243724 -107.65648214 263.23033666 -110.25 259.1875 C-113.26533447 248.88984832 -107.39784227 235.93921668 -104.3125 226.1875 C-93.88040797 195.90349898 -93.88040797 195.90349898 -94.125 164.5 C-96.70793695 160.1778855 -99.87752058 158.09096245 -104.125 155.5 C-105.29949254 154.66717802 -106.46588029 153.82283821 -107.625 152.96875 C-110.565467 150.80629149 -113.53932204 148.69947404 -116.53320312 146.61181641 C-118.70433727 145.09535246 -120.85970046 143.55968637 -123 142 C-123.61617187 141.5565625 -124.23234375 141.113125 -124.8671875 140.65625 C-125.28226563 140.2746875 -125.69734375 139.893125 -126.125 139.5 C-126.125 138.84 -126.125 138.18 -126.125 137.5 C-126.68703125 137.25507813 -127.2490625 137.01015625 -127.828125 136.7578125 C-132.52316322 134.18672014 -136.2408994 130.13989068 -140.125 126.5 C-141.29289062 125.41332031 -141.29289062 125.41332031 -142.484375 124.3046875 C-143.19078125 123.62664062 -143.8971875 122.94859375 -144.625 122.25 C-145.2540625 121.64671875 -145.883125 121.0434375 -146.53125 120.421875 C-148.125 118.5 -148.125 118.5 -149.15625 115.828125 C-149.4759375 115.05984375 -149.795625 114.2915625 -150.125 113.5 C-151.115 113.17 -152.105 112.84 -153.125 112.5 C-156.39056739 107.04480361 -159.125 100.91464796 -159.125 94.5 C-157.50737068 90.75391104 -155.59161455 88.59949895 -152.125 86.5 C-149.56148921 85.98312711 -147.18411983 85.63820393 -144.59375 85.40625 C-143.81801636 85.32862427 -143.04228271 85.25099854 -142.24304199 85.17102051 C-129.18523823 83.94474325 -116.05844187 83.45645686 -102.96191406 82.82275391 C-99.40134767 82.64849717 -95.8413235 82.46526396 -92.28125 82.28125 C-91.20814575 82.23222534 -90.1350415 82.18320068 -89.02941895 82.13269043 C-80.14451964 81.66808621 -72.01781361 80.84104749 -64.125 76.5 C-63.465 76.5 -62.805 76.5 -62.125 76.5 C-61.71205688 75.62529053 -61.71205688 75.62529053 -61.29077148 74.73291016 C-60.16484681 72.57632228 -58.89996701 70.73960316 -57.47265625 68.7734375 C-52.9224472 62.02062346 -49.85154958 54.54408207 -46.5625 47.125 C-45.91025647 45.66893407 -45.25726587 44.21320256 -44.60351562 42.7578125 C-43.3438553 39.95061493 -42.0871668 37.1421267 -40.83398438 34.33203125 C-40.54394531 33.68169922 -40.25390625 33.03136719 -39.95507812 32.36132812 C-39.68115234 31.74708984 -39.40722656 31.13285156 -39.125 30.5 C-26.97843997 3.27999801 -26.97843997 3.27999801 -16.25 -1.5 C-10.50171348 -3.29355452 -5.36845748 -2.57685959 0 0 Z " fill="#ADFAFC" transform="translate(301.125,53.5)"/>
<path d="M0 0 C7.78456961 6.76919096 11.76128653 14.99742962 15.50189209 24.40075684 C16.32793791 26.47628948 17.17140013 28.54395398 18.02001953 30.61035156 C19.13948243 33.33772451 20.2540562 36.06698586 21.36376953 38.79833984 C29.74301644 59.96698276 29.74301644 59.96698276 43.875 77.5 C43.545 78.16 43.215 78.82 42.875 79.5 C33.3297544 72.53992509 28.36558211 61.71565037 22.875 51.5 C23.205 53.81 23.535 56.12 23.875 58.5 C20.97473937 57.04986969 20.82545604 55.19479373 19.75 52.1875 C19.22019531 50.73923828 19.22019531 50.73923828 18.6796875 49.26171875 C17.875 46.5 17.875 46.5 17.875 42.5 C17.215 42.17 16.555 41.84 15.875 41.5 C15.20833333 39.83333333 14.54166667 38.16666667 13.875 36.5 C13.215 36.17 12.555 35.84 11.875 35.5 C9.95879023 31.31001022 8.80674627 26.88427796 8.3125 22.3125 C7.90540789 18.76498307 7.12382642 15.83020379 5.875 12.5 C5.215 12.5 4.555 12.5 3.875 12.5 C3.7925 11.71625 3.71 10.9325 3.625 10.125 C3.16391703 7.39809093 3.16391703 7.39809093 1.0625 6.375 C0.340625 6.08625 -0.38125 5.7975 -1.125 5.5 C-1.681875 4.984375 -2.23875 4.46875 -2.8125 3.9375 C-6.33452362 1.74813397 -10.04887378 1.75258047 -14.125 1.5 C-14.125 2.16 -14.125 2.82 -14.125 3.5 C-15.78515625 4.34635417 -17.4453125 5.19270833 -19.10546875 6.0390625 C-24.63955892 10.04244688 -27.40281067 15.55553108 -30.125 21.625 C-30.47111328 22.3785376 -30.81722656 23.1320752 -31.17382812 23.90844727 C-33.49201153 28.99057691 -35.67366008 34.12257286 -37.796875 39.2890625 C-53.70686216 77.75379616 -53.70686216 77.75379616 -66.89453125 83.76171875 C-73.99843607 86.47204388 -80.65602047 87.65707897 -88.23828125 88.02734375 C-89.05605545 88.06866928 -89.87382965 88.10999481 -90.71638489 88.15257263 C-102.57406652 88.7096486 -114.44464894 88.861822 -126.3125 89.0625 C-128.73112518 89.10582011 -131.14974504 89.149438 -133.56835938 89.19335938 C-139.42051625 89.29899712 -145.27272739 89.40099257 -151.125 89.5 C-153.03288918 95.22366753 -152.45608509 99.29813634 -149.8125 104.625 C-148.92792932 106.2561582 -148.03340315 107.88199318 -147.125 109.5 C-146.444375 110.86125 -146.444375 110.86125 -145.75 112.25 C-143.76492418 114.99856652 -141.42551492 116.89575029 -138.8125 119.03515625 C-137.125 120.5 -137.125 120.5 -135.1875 122.9375 C-131.51454576 127.50086739 -126.98950407 131.25699729 -122.125 134.5 C-122.125 135.16 -122.125 135.82 -122.125 136.5 C-121.568125 136.70625 -121.01125 136.9125 -120.4375 137.125 C-118.125 138.5 -118.125 138.5 -116.0625 141.1875 C-113.7496853 144.1137747 -111.2435591 145.81668391 -108.0625 147.75 C-106.64517578 148.65105469 -106.64517578 148.65105469 -105.19921875 149.5703125 C-103.0669182 150.90875783 -100.89933754 152.19197401 -98.70703125 153.4296875 C-90.77313017 158.65694706 -90.77313017 158.65694706 -89.63867188 163.63330078 C-89.14073976 169.99503875 -90.13392938 176.22878919 -91.125 182.5 C-91.26631348 183.4895166 -91.40762695 184.4790332 -91.55322266 185.49853516 C-93.17635252 196.76935948 -95.25086535 207.76370131 -99.125 218.5 C-99.785 218.5 -100.445 218.5 -101.125 218.5 C-100.20642645 213.06781326 -99.22476238 207.68539516 -97.8359375 202.3515625 C-92.96570245 183.61444109 -92.96570245 183.61444109 -94.125 164.5 C-96.69209024 160.16624855 -99.87686124 158.09136465 -104.125 155.5 C-105.29949254 154.66717802 -106.46588029 153.82283821 -107.625 152.96875 C-110.565467 150.80629149 -113.53932204 148.69947404 -116.53320312 146.61181641 C-118.70433727 145.09535246 -120.85970046 143.55968637 -123 142 C-123.61617187 141.5565625 -124.23234375 141.113125 -124.8671875 140.65625 C-125.28226563 140.2746875 -125.69734375 139.893125 -126.125 139.5 C-126.125 138.84 -126.125 138.18 -126.125 137.5 C-126.68703125 137.25507813 -127.2490625 137.01015625 -127.828125 136.7578125 C-132.52316322 134.18672014 -136.2408994 130.13989068 -140.125 126.5 C-141.29289062 125.41332031 -141.29289062 125.41332031 -142.484375 124.3046875 C-143.19078125 123.62664062 -143.8971875 122.94859375 -144.625 122.25 C-145.2540625 121.64671875 -145.883125 121.0434375 -146.53125 120.421875 C-148.125 118.5 -148.125 118.5 -149.15625 115.828125 C-149.4759375 115.05984375 -149.795625 114.2915625 -150.125 113.5 C-151.115 113.17 -152.105 112.84 -153.125 112.5 C-156.39056739 107.04480361 -159.125 100.91464796 -159.125 94.5 C-157.50737068 90.75391104 -155.59161455 88.59949895 -152.125 86.5 C-149.56148921 85.98312711 -147.18411983 85.63820393 -144.59375 85.40625 C-143.81801636 85.32862427 -143.04228271 85.25099854 -142.24304199 85.17102051 C-129.18523823 83.94474325 -116.05844187 83.45645686 -102.96191406 82.82275391 C-99.40134767 82.64849717 -95.8413235 82.46526396 -92.28125 82.28125 C-91.20814575 82.23222534 -90.1350415 82.18320068 -89.02941895 82.13269043 C-80.14451964 81.66808621 -72.01781361 80.84104749 -64.125 76.5 C-63.465 76.5 -62.805 76.5 -62.125 76.5 C-61.71205688 75.62529053 -61.71205688 75.62529053 -61.29077148 74.73291016 C-60.16484681 72.57632228 -58.89996701 70.73960316 -57.47265625 68.7734375 C-52.9224472 62.02062346 -49.85154958 54.54408207 -46.5625 47.125 C-45.91025647 45.66893407 -45.25726587 44.21320256 -44.60351562 42.7578125 C-43.3438553 39.95061493 -42.0871668 37.1421267 -40.83398438 34.33203125 C-40.54394531 33.68169922 -40.25390625 33.03136719 -39.95507812 32.36132812 C-39.68115234 31.74708984 -39.40722656 31.13285156 -39.125 30.5 C-26.97843997 3.27999801 -26.97843997 3.27999801 -16.25 -1.5 C-10.50171348 -3.29355452 -5.36845748 -2.57685959 0 0 Z " fill="#C7EAEF" transform="translate(301.125,53.5)"/>
<path d="M0 0 C0.73863281 0.13277344 1.47726562 0.26554688 2.23828125 0.40234375 C3.76001953 0.66724609 3.76001953 0.66724609 5.3125 0.9375 C6.79169922 1.19853516 6.79169922 1.19853516 8.30078125 1.46484375 C17.81401771 2.84109866 27.30820486 3.17697128 36.90722656 3.38815308 C78.06189917 4.33042632 78.06189917 4.33042632 89 11 C92.01919367 15.5287905 91.65092793 19.6945874 91 25 C88.42080261 33.45767264 82.07993649 40.73712737 76 47 C75.34 47 74.68 47 74 47 C73.67 47.99 73.34 48.98 73 50 C72.34 50 71.68 50 71 50 C70.67 50.99 70.34 51.98 70 53 C64.92356035 58.2243442 58.82603228 62.56727475 53.0625 67 C51.94198242 67.86625 51.94198242 67.86625 50.79882812 68.75 C49.29632958 69.91155194 47.79332275 71.07244671 46.28979492 72.23266602 C43.89752369 74.07909436 41.50603539 75.92648768 39.1171875 77.77734375 C38.39772949 78.33413818 37.67827148 78.89093262 36.93701172 79.46459961 C32.24392705 83.18464113 29.26177455 86.03524759 28 92 C27.52479523 98.65793119 28.52290873 104.77740439 30 111.25 C30.21785156 112.23162109 30.43570313 113.21324219 30.66015625 114.22460938 C32.52171029 122.38798158 34.73334453 130.44125406 37 138.5 C39.53898148 147.54396323 41.98688014 156.58719117 44.0625 165.75 C44.27841797 166.65943359 44.49433594 167.56886719 44.71679688 168.50585938 C45.93896553 174.10431577 46.48252862 179.38591724 45 185 C41.91285163 189.14559924 39.02526957 190.91611833 34 192 C18.41713698 193.66959247 -3.27181793 183.63432234 -16 175 C-16.66 174.01 -17.32 173.02 -18 172 C-12.06745647 173.77976306 -6.80914138 176.47803236 -1.3828125 179.41796875 C10.5253476 185.69476317 22.36965258 190.16167734 36 189 C35.07058594 188.87882813 34.14117187 188.75765625 33.18359375 188.6328125 C20.90509666 186.96836555 20.90509666 186.96836555 15 185 C15 184.67 15 184.34 15 184 C21.625 183.875 21.625 183.875 25 185 C27.06145107 185.068991 29.12501401 185.08467727 31.1875 185.0625 C32.27417969 185.05347656 33.36085938 185.04445313 34.48046875 185.03515625 C35.31191406 185.02355469 36.14335937 185.01195312 37 185 C37.33 184.34 37.66 183.68 38 183 C38.99 183 39.98 183 41 183 C39.5532494 165.09022537 35.25522239 147.69476439 30.375 130.4375 C20.33653138 94.90067759 20.33653138 94.90067759 26.6484375 82.8671875 C28.59387082 80.17956574 30.86812908 78.1783441 33.51171875 76.19140625 C35.14884209 75.05128882 35.14884209 75.05128882 36 73 C37.155 72.690625 38.31 72.38125 39.5 72.0625 C40.655 71.711875 41.81 71.36125 43 71 C43.495 69.515 43.495 69.515 44 68 C46.0625 67.3125 46.0625 67.3125 48 67 C48 66.34 48 65.68 48 65 C49.65770921 63.66380379 51.37852016 62.40537861 53.125 61.1875 C60.86350638 55.91867771 60.86350638 55.91867771 67 49 C67.66 49 68.32 49 69 49 C69 48.34 69 47.68 69 47 C70.875 44.875 70.875 44.875 73 43 C73.66 43 74.32 43 75 43 C75 42.34 75 41.68 75 41 C76.66666667 39.33333333 78.33333333 37.66666667 80 36 C80.33 35.01 80.66 34.02 81 33 C80.505 33.99 80.505 33.99 80 35 C79.34 35 78.68 35 78 35 C78 35.66 78 36.32 78 37 C76.02 37.99 76.02 37.99 74 39 C74 38.34 74 37.68 74 37 C72.515 37.495 72.515 37.495 71 38 C71 37.34 71 36.68 71 36 C71.99 36 72.98 36 74 36 C74 35.34 74 34.68 74 34 C75.07122452 33.10486718 76.18321025 32.25816398 77.3125 31.4375 C81.55759687 27.97439466 82.7815877 24.22176701 84 19 C84.66 19 85.32 19 86 19 C85.01 18.01 84.02 17.02 83 16 C82.67 16.66 82.34 17.32 82 18 C81.67 16.35 81.34 14.7 81 13 C79.046875 13.06510417 77.09375 13.13020833 75.140625 13.1953125 C73 13 73 13 71.0234375 11.96875 C68.48807603 10.75490899 67.14129704 10.97981471 64.375 11.375 C59.06504549 11.97938507 53.83732901 12.1218008 48.5 12.125 C47.71028809 12.12935059 46.92057617 12.13370117 46.10693359 12.13818359 C42.81696611 12.13037569 40.14220712 12.04740237 37 11 C35.3086347 10.92943824 33.61457193 10.91576005 31.921875 10.9375 C30.42720703 10.94910156 30.42720703 10.94910156 28.90234375 10.9609375 C26.81640384 10.98678558 24.73046629 11.01282432 22.64453125 11.0390625 C17.30662467 11.08028186 12.25706633 10.95043007 7 10 C7 9.67 7 9.34 7 9 C27.79 8.67 48.58 8.34 70 8 C50.65969719 7.09419455 50.65969719 7.09419455 31.31860352 6.20556641 C28.88034124 6.08818351 26.44210679 5.97022075 24.00390625 5.8515625 C22.75444214 5.79701904 21.50497803 5.74247559 20.21765137 5.6862793 C13.61305025 5.35706574 7.34234522 4.9510386 1 3 C0.67 2.01 0.34 1.02 0 0 Z M69 38 C71 39 71 39 71 39 Z " fill="#BBEFF8" transform="translate(346,132)"/>
<path d="M0 0 C0.66 0.66 1.32 1.32 2 2 C1.04956626 3.33897583 0.08940853 4.67105427 -0.875 6 C-1.40867187 6.7425 -1.94234375 7.485 -2.4921875 8.25 C-2.98976563 8.8275 -3.48734375 9.405 -4 10 C-4.66 10 -5.32 10 -6 10 C-6 10.66 -6 11.32 -6 12 C-6.66 12 -7.32 12 -8 12 C-8.66 13.32 -9.32 14.64 -10 16 C-10.66 16 -11.32 16 -12 16 C-12 16.66 -12 17.32 -12 18 C-15.68905394 22.06849948 -19.87090347 25.43409791 -24.1875 28.8125 C-25.13012695 29.56563477 -25.13012695 29.56563477 -26.09179688 30.33398438 C-30.75536777 34 -30.75536777 34 -33 34 C-33 34.66 -33 35.32 -33 36 C-33.598125 36.268125 -34.19625 36.53625 -34.8125 36.8125 C-37.03012126 37.86353037 -37.03012126 37.86353037 -38.4375 39.5625 C-40 41 -40 41 -42.5625 41.4375 C-43.366875 41.623125 -44.17125 41.80875 -45 42 C-46.1500831 43.96672915 -46.1500831 43.96672915 -47 46 C-48.485 46.495 -48.485 46.495 -50 47 C-50.33 47.99 -50.66 48.98 -51 50 C-51.99 50.495 -51.99 50.495 -53 51 C-60.80878777 66.01689957 -54.00220495 83.80201654 -50 99 C-48.63863865 104.32626899 -47.31715229 109.66265057 -46 115 C-45.75185547 115.99741211 -45.50371094 116.99482422 -45.24804688 118.02246094 C-44.40160015 121.44926949 -43.57439605 124.88032546 -42.75 128.3125 C-42.47929687 129.39845459 -42.20859375 130.48440918 -41.9296875 131.60327148 C-40.28986003 138.5223502 -39.64954745 144.89448604 -40 152 C-40.99 152 -41.98 152 -43 152 C-43.33 152.99 -43.66 153.98 -44 155 C-50.90352555 155.51137226 -55.74827614 153.86964374 -62 151 C-61.01 150.01 -61.01 150.01 -60 149 C-59.31292969 149.30035156 -58.62585938 149.60070312 -57.91796875 149.91015625 C-57.01691406 150.29042969 -56.11585938 150.67070312 -55.1875 151.0625 C-54.29417969 151.44535156 -53.40085937 151.82820312 -52.48046875 152.22265625 C-49.9080764 153.29461205 -49.9080764 153.29461205 -47 152 C-47 151.34 -47 150.68 -47 150 C-46.01 150 -45.02 150 -44 150 C-42.9251709 143.72532201 -43.11658802 139.09339169 -45 133 C-45.66 133.33 -46.32 133.66 -47 134 C-47.33 131.03 -47.66 128.06 -48 125 C-48.66 125 -49.32 125 -50 125 C-49.98839844 124.30132812 -49.97679687 123.60265625 -49.96484375 122.8828125 C-49.95582031 121.97273438 -49.94679688 121.06265625 -49.9375 120.125 C-49.92589844 119.22007812 -49.91429687 118.31515625 -49.90234375 117.3828125 C-49.83750743 114.9831415 -49.83750743 114.9831415 -51 113 C-50.0625 110.875 -50.0625 110.875 -49 109 C-50.65 109 -52.3 109 -54 109 C-53.34 106.03 -52.68 103.06 -52 100 C-53.32 99.67 -54.64 99.34 -56 99 C-55.67 98.01 -55.34 97.02 -55 96 C-55.53970279 93.6971385 -55.53970279 93.6971385 -56.4375 91.25 C-57.96112503 86.49128074 -59.35613 81.71226 -57 77 C-57.99 77 -58.98 77 -60 77 C-62.54953302 66.90722051 -62.00378734 59.57427408 -58 50 C-57.34 50 -56.68 50 -56 50 C-55.773125 49.21625 -55.54625 48.4325 -55.3125 47.625 C-53.65618946 44.31237892 -52.35961714 44.25985643 -49 43 C-48.55527344 42.08347656 -48.55527344 42.08347656 -48.1015625 41.1484375 C-46.75291771 38.51810193 -45.25371147 37.42387649 -42.875 35.6875 C-38.93987508 32.75519724 -35.30785329 29.6380108 -31.7265625 26.28515625 C-30 25 -30 25 -27 25 C-27 24.34 -27 23.68 -27 23 C-26.195625 22.731875 -25.39125 22.46375 -24.5625 22.1875 C-23.2940625 21.5996875 -23.2940625 21.5996875 -22 21 C-21.505 19.515 -21.505 19.515 -21 18 C-20.34 17.67 -19.68 17.34 -19 17 C-18.34786708 14.97536745 -18.34786708 14.97536745 -18 13 C-16.88625 12.87625 -16.88625 12.87625 -15.75 12.75 C-12.89534569 12.21576876 -12.89534569 12.21576876 -11.0625 10.0625 C-8.56892711 7.56892711 -6.36292059 6.91716016 -3 6 C-3 5.34 -3 4.68 -3 4 C-2.34 4 -1.68 4 -1 4 C-0.67 2.68 -0.34 1.36 0 0 Z " fill="#A3F1F7" transform="translate(427,163)"/>
<path d="M0 0 C0.66 0 1.32 0 2 0 C2.2144997 8.27015524 2.07422976 15.96235969 0 24 C0.99 24.33 1.98 24.66 3 25 C2.525625 25.53625 2.05125 26.0725 1.5625 26.625 C-0.30295387 29.46048989 -0.58199885 31.65599079 -1 35 C-1.226875 35.7425 -1.45375 36.485 -1.6875 37.25 C-1.790625 37.8275 -1.89375 38.405 -2 39 C-1.34 39.66 -0.68 40.32 0 41 C-0.99 41.99 -1.98 42.98 -3 44 C8.88517465 47.96172488 20.03463444 43.46048769 31 39 C30.443125 39.19335938 29.88625 39.38671875 29.3125 39.5859375 C15.23430962 44.38964435 15.23430962 44.38964435 9 44 C9.625 42.125 9.625 42.125 11 40 C12.98276 39.28368497 14.98659459 38.62501448 17 38 C19.04961516 37.1864123 21.0914493 36.3529471 23.125 35.5 C24.13820312 35.0771875 25.15140625 34.654375 26.1953125 34.21875 C28.92691266 33.0749496 28.92691266 33.0749496 31.1796875 31.84375 C34.27723092 30.4079788 36.8483747 31.13058612 40 32 C40.33 31.34 40.66 30.68 41 30 C41.99 30 42.98 30 44 30 C46.16441814 29.26065508 48.3085863 28.46110004 50.4375 27.625 C51.57058594 27.18414062 52.70367187 26.74328125 53.87109375 26.2890625 C58.5673004 24.47234197 58.5673004 24.47234197 62.5 21.47265625 C64.25146403 19.75311995 65.68351314 19.205275 68 18.4375 C70.77572269 17.50700205 72.49561903 16.66958731 75 15 C77.1875 15.375 77.1875 15.375 79 16 C74.00559485 18.91558206 68.94073542 21.57805333 63.75 24.125 C58.24382083 26.82482329 58.24382083 26.82482329 53 30 C60.94900525 26.60360685 68.81869686 23.15774248 76.5 19.1875 C84.4985663 15.15651245 91.04756477 12.92263934 100 15 C103.5625 16.5625 103.5625 16.5625 106 18 C104 19 104 19 100.9375 18 C89.31316948 14.49348708 77.70417556 22.0932488 67.52807617 26.93139648 C61.86325307 29.61893163 56.15272281 32.14215955 50.37109375 34.5703125 C48.14250824 35.51546001 45.92577089 36.48910074 43.72265625 37.4921875 C14.20061606 50.78916243 14.20061606 50.78916243 1 48 C-3.51289907 46.22243724 -5.53148214 43.73033666 -8.125 39.6875 C-11.69134534 27.81444969 -3.76355362 11.20540235 0 0 Z " fill="#A8F7F4" transform="translate(199,273)"/>
<path d="M0 0 C7.78456961 6.76919096 11.76128653 14.99742962 15.50189209 24.40075684 C16.32793791 26.47628948 17.17140013 28.54395398 18.02001953 30.61035156 C19.13948243 33.33772451 20.2540562 36.06698586 21.36376953 38.79833984 C29.74301644 59.96698276 29.74301644 59.96698276 43.875 77.5 C43.545 78.16 43.215 78.82 42.875 79.5 C33.3297544 72.53992509 28.36558211 61.71565037 22.875 51.5 C23.37 54.965 23.37 54.965 23.875 58.5 C20.97473937 57.04986969 20.82545604 55.19479373 19.75 52.1875 C19.39679688 51.22199219 19.04359375 50.25648437 18.6796875 49.26171875 C17.875 46.5 17.875 46.5 17.875 42.5 C17.215 42.17 16.555 41.84 15.875 41.5 C15.20833333 39.83333333 14.54166667 38.16666667 13.875 36.5 C13.215 36.17 12.555 35.84 11.875 35.5 C9.95879023 31.31001022 8.80674627 26.88427796 8.3125 22.3125 C7.90540789 18.76498307 7.12382642 15.83020379 5.875 12.5 C5.215 12.5 4.555 12.5 3.875 12.5 C3.7925 11.71625 3.71 10.9325 3.625 10.125 C3.16391703 7.39809093 3.16391703 7.39809093 1.0625 6.375 C0.340625 6.08625 -0.38125 5.7975 -1.125 5.5 C-1.681875 4.984375 -2.23875 4.46875 -2.8125 3.9375 C-6.33452362 1.74813397 -10.04887378 1.75258047 -14.125 1.5 C-14.125 2.16 -14.125 2.82 -14.125 3.5 C-15.78515625 4.34635417 -17.4453125 5.19270833 -19.10546875 6.0390625 C-24.63955892 10.04244688 -27.40281067 15.55553108 -30.125 21.625 C-30.47111328 22.3785376 -30.81722656 23.1320752 -31.17382812 23.90844727 C-33.488188 28.98219463 -35.67086305 34.10373259 -37.78125 39.265625 C-48.26005311 64.48786039 -48.26005311 64.48786039 -52.125 69.5 C-53.61 69.995 -53.61 69.995 -55.125 70.5 C-56.79210346 71.99985609 -56.79210346 71.99985609 -58.125 73.5 C-58.125 69.65640033 -56.55588614 67.13053074 -54.8125 63.8125 C-51.15811527 56.69076928 -47.75785716 49.47059071 -44.4375 42.1875 C-43.76110474 40.70407104 -43.76110474 40.70407104 -43.07104492 39.19067383 C-41.30590823 35.31151191 -39.54250947 31.43178145 -37.79980469 27.54248047 C-26.86952993 3.23147373 -26.86952993 3.23147373 -16.25 -1.5 C-10.50171348 -3.29355452 -5.36845748 -2.57685959 0 0 Z " fill="#B8F2F8" transform="translate(301.125,53.5)"/>
<path d="M0 0 C1.10794922 0.19916016 1.10794922 0.19916016 2.23828125 0.40234375 C3.76001953 0.66724609 3.76001953 0.66724609 5.3125 0.9375 C6.79169922 1.19853516 6.79169922 1.19853516 8.30078125 1.46484375 C17.81401771 2.84109866 27.30820486 3.17697128 36.90722656 3.38815308 C78.06189917 4.33042632 78.06189917 4.33042632 89 11 C92.0176165 15.52642475 91.65588075 19.69713434 91 25 C88.47636827 33.13442461 82.84118988 39.01882517 77 45 C76.34 44.67 75.68 44.34 75 44 C75.51949219 43.45472656 76.03898437 42.90945312 76.57421875 42.34765625 C84.47354816 34.27248631 84.47354816 34.27248631 88 24 C87.74605469 24.56589844 87.49210937 25.13179687 87.23046875 25.71484375 C86.71419922 26.81505859 86.71419922 26.81505859 86.1875 27.9375 C85.85105469 28.66839844 85.51460938 29.39929688 85.16796875 30.15234375 C84 32 84 32 81 33 C80.505 33.99 80.505 33.99 80 35 C79.34 35 78.68 35 78 35 C78 35.66 78 36.32 78 37 C76.02 37.99 76.02 37.99 74 39 C74 38.34 74 37.68 74 37 C72.515 37.495 72.515 37.495 71 38 C71 37.34 71 36.68 71 36 C71.99 36 72.98 36 74 36 C74 35.34 74 34.68 74 34 C75.07122452 33.10486718 76.18321025 32.25816398 77.3125 31.4375 C81.55759687 27.97439466 82.7815877 24.22176701 84 19 C84.66 19 85.32 19 86 19 C85.01 18.01 84.02 17.02 83 16 C82.67 16.66 82.34 17.32 82 18 C81.67 16.35 81.34 14.7 81 13 C79.046875 13.06510417 77.09375 13.13020833 75.140625 13.1953125 C73 13 73 13 71.0234375 11.96875 C68.48807603 10.75490899 67.14129704 10.97981471 64.375 11.375 C59.06504549 11.97938507 53.83732901 12.1218008 48.5 12.125 C47.71028809 12.12935059 46.92057617 12.13370117 46.10693359 12.13818359 C42.81696611 12.13037569 40.14220712 12.04740237 37 11 C35.3086347 10.92943824 33.61457193 10.91576005 31.921875 10.9375 C30.42720703 10.94910156 30.42720703 10.94910156 28.90234375 10.9609375 C26.81640384 10.98678558 24.73046629 11.01282432 22.64453125 11.0390625 C17.30662467 11.08028186 12.25706633 10.95043007 7 10 C7 9.67 7 9.34 7 9 C27.79 8.67 48.58 8.34 70 8 C50.65969719 7.09419455 50.65969719 7.09419455 31.31860352 6.20556641 C28.88034124 6.08818351 26.44210679 5.97022075 24.00390625 5.8515625 C22.75444214 5.79701904 21.50497803 5.74247559 20.21765137 5.6862793 C13.61305025 5.35706574 7.34234522 4.9510386 1 3 C0.67 2.01 0.34 1.02 0 0 Z M69 38 C71 39 71 39 71 39 Z " fill="#A3F1F0" transform="translate(346,132)"/>
<path d="M0 0 C8.62396205 -0.48661855 15.23800667 0.07519976 23 4 C23 4.66 23 5.32 23 6 C23.66 6.0825 24.32 6.165 25 6.25 C27.70656042 6.9266401 29.41500938 7.72425573 31.8125 9.0625 C34.85388424 10.67841572 36.93401507 11.21237956 40.375 11.0625 C41.57125 11.041875 42.7675 11.02125 44 11 C44.99 12.485 44.99 12.485 46 14 C48.05925139 14.72382467 48.05925139 14.72382467 50 15 C50 15.66 50 16.32 50 17 C51.134375 17.268125 52.26875 17.53625 53.4375 17.8125 C54.613125 18.204375 55.78875 18.59625 57 19 C57.495 20.485 57.495 20.485 58 22 C58.99 22 59.98 22 61 22 C61 22.99 61 23.98 61 25 C61.67546875 25.12117188 62.3509375 25.24234375 63.046875 25.3671875 C63.93890625 25.53476562 64.8309375 25.70234375 65.75 25.875 C66.63171875 26.03742188 67.5134375 26.19984375 68.421875 26.3671875 C70.89733667 26.97480082 72.82641115 27.67822299 75 29 C75.495 29.99 75.495 29.99 76 31 C83.07854077 33.72954801 90.47804173 34.57807197 98 35 C97.67 35.66 97.34 36.32 97 37 C82.69554754 38.86579815 67.40415553 32.54657646 55.296875 25.35546875 C50.86157767 22.73803989 46.21383052 20 41 20 C39.17822266 19.23730469 39.17822266 19.23730469 37.1640625 18.171875 C36.42929687 17.78386719 35.69453125 17.39585937 34.9375 16.99609375 C33.7928125 16.37927734 33.7928125 16.37927734 32.625 15.75 C31.86960937 15.35425781 31.11421875 14.95851563 30.3359375 14.55078125 C25.34044569 11.88710117 21.02634725 9.02634725 17 5 C10.61737861 1.96825484 4.58971548 2.90563208 -1.97265625 4.90625 C-9.69226594 7.73773013 -16.9763839 11.3727952 -24.2734375 15.1328125 C-27.80652596 16.92057371 -31.28514568 18.61709803 -35 20 C-35.99 19.67 -36.98 19.34 -38 19 C-37.48203857 18.75878418 -36.96407715 18.51756836 -36.43041992 18.26904297 C-20.29231967 10.9193912 -20.29231967 10.9193912 -5 2 C-2.3125 1.875 -2.3125 1.875 0 2 C0 1.34 0 0.68 0 0 Z " fill="#B6F9F5" transform="translate(285,285)"/>
<path d="M0 0 C3.05813353 2.71834092 3.94134747 5.24423489 5.15625 9.0625 C6.11787566 11.27067744 7.21560707 12.40203618 9 14 C13.88372093 18.65116279 13.88372093 18.65116279 15 22 C15.66 22 16.32 22 17 22 C17.639375 22.804375 18.27875 23.60875 18.9375 24.4375 C22.12563956 28.41801343 25.99983643 31.40272193 29.97265625 34.5703125 C33.0364022 37.0292157 36.01526076 39.57108788 39 42.125 C42.69950716 45.22381399 46.38507936 47.98138478 50.5 50.5 C51.38171875 51.06460938 52.2634375 51.62921875 53.171875 52.2109375 C55.21076875 53.50073493 57.28966951 54.72803924 59.390625 55.9140625 C62.99693737 58.16542293 65.57712598 60.43769747 68 64 C69.57157827 70.89380066 68.08599484 78.1281359 67 85 C66.78802979 86.4842749 66.78802979 86.4842749 66.57177734 87.99853516 C64.94864748 99.26935948 62.87413465 110.26370131 59 121 C58.34 121 57.68 121 57 121 C57.91857355 115.56781326 58.90023762 110.18539516 60.2890625 104.8515625 C65.15929755 86.11444109 65.15929755 86.11444109 64 67 C61.43290976 62.66624855 58.24813876 60.59136465 54 58 C52.82550746 57.16717802 51.65911971 56.32283821 50.5 55.46875 C47.559533 53.30629149 44.58567796 51.19947404 41.59179688 49.11181641 C39.42066273 47.59535246 37.26529954 46.05968637 35.125 44.5 C34.20074219 43.83484375 34.20074219 43.83484375 33.2578125 43.15625 C32.84273437 42.7746875 32.42765625 42.393125 32 42 C32 41.34 32 40.68 32 40 C31.43796875 39.75507813 30.8759375 39.51015625 30.296875 39.2578125 C25.60183678 36.68672014 21.8841006 32.63989068 18 29 C17.22140625 28.27554688 16.4428125 27.55109375 15.640625 26.8046875 C14.93421875 26.12664062 14.2278125 25.44859375 13.5 24.75 C12.8709375 24.14671875 12.241875 23.5434375 11.59375 22.921875 C10 21 10 21 8.96875 18.328125 C8.6490625 17.55984375 8.329375 16.7915625 8 16 C7.01 15.67 6.02 15.34 5 15 C3.61328125 12.63671875 3.61328125 12.63671875 2.3125 9.6875 C1.87550781 8.72199219 1.43851563 7.75648438 0.98828125 6.76171875 C0 4 0 4 0 0 Z " fill="#E7E4EC" transform="translate(143,151)"/>
<path d="M0 0 C1.00681167 2.61291601 1.13803844 3.67271531 0.03125 6.296875 C-3.16160558 11.41195995 -6.48767865 15.96233349 -10.6796875 20.30859375 C-12.30766302 22.03651768 -12.30766302 22.03651768 -12 25 C-12.66 25 -13.32 25 -14 25 C-14.495 26.485 -14.495 26.485 -15 28 C-15.66 28 -16.32 28 -17 28 C-17.495 29.485 -17.495 29.485 -18 31 C-23.07643965 36.2243442 -29.17396772 40.56727475 -34.9375 45 C-35.68451172 45.5775 -36.43152344 46.155 -37.20117188 46.75 C-38.70367042 47.91155194 -40.20667725 49.07244671 -41.71020508 50.23266602 C-44.10247631 52.07909436 -46.49396461 53.92648768 -48.8828125 55.77734375 C-49.60227051 56.33413818 -50.32172852 56.89093262 -51.06298828 57.46459961 C-55.81037909 61.22768769 -58.47925734 64.0552787 -60 70 C-60.33 70 -60.66 70 -61 70 C-61.3340054 78.94392234 -61.01568333 86.61125224 -58.55859375 95.29296875 C-57.99896978 98.00499259 -58.07349876 99.42911246 -59 102 C-59.6483289 99.77155786 -60.29356369 97.5422154 -60.9375 95.3125 C-61.47697266 93.45044922 -61.47697266 93.45044922 -62.02734375 91.55078125 C-64.69997099 81.79408182 -66.22399757 70.15636228 -61.3515625 60.8671875 C-59.40612918 58.17956574 -57.13187092 56.1783441 -54.48828125 54.19140625 C-52.85115791 53.05128882 -52.85115791 53.05128882 -52 51 C-50.845 50.690625 -49.69 50.38125 -48.5 50.0625 C-47.345 49.711875 -46.19 49.36125 -45 49 C-44.67 48.01 -44.34 47.02 -44 46 C-41.9375 45.3125 -41.9375 45.3125 -40 45 C-40 44.34 -40 43.68 -40 43 C-38.34229079 41.66380379 -36.62147984 40.40537861 -34.875 39.1875 C-27.13649362 33.91867771 -27.13649362 33.91867771 -21 27 C-20.34 27 -19.68 27 -19 27 C-19 26.34 -19 25.68 -19 25 C-17.125 22.875 -17.125 22.875 -15 21 C-14.34 21 -13.68 21 -13 21 C-13 20.34 -13 19.68 -13 19 C-11.33333333 17.33333333 -9.66666667 15.66666667 -8 14 C-4.42861948 9.63729318 -2.03448047 5.24681804 0 0 Z " fill="#DEE1ED" transform="translate(434,154)"/>
<path d="M0 0 C4.07296876 -0.49873087 7.56775103 -0.88737164 11.15625 1.3359375 C12.86161784 2.82463976 14.46275038 4.33917726 16 6 C15.67 6.99 15.34 7.98 15 9 C14.38125 8.505 13.7625 8.01 13.125 7.5 C11.16119096 5.80777227 11.16119096 5.80777227 9 6 C8.505 5.01 8.505 5.01 8 4 C2.6925242 3.49452611 0.17668141 4.77256437 -4 8 C-6.1304373 9.8322949 -6.1304373 9.8322949 -6.75 12.25 C-8.22290425 15.49038936 -10.09583456 17.1736753 -12.7578125 19.47265625 C-14.42064403 21.18908907 -14.42064403 21.18908907 -14 25 C-14.66 25 -15.32 25 -16 25 C-16.226875 25.94875 -16.45375 26.8975 -16.6875 27.875 C-17.86382966 32.06887098 -19.82078634 35.74721735 -21.87890625 39.5703125 C-23.02785371 42.06036588 -23.49156527 44.31834427 -24 47 C-24.96113866 48.36161311 -25.95884159 49.69855198 -27 51 C-27.33 51.99 -27.66 52.98 -28 54 C-28.66 54 -29.32 54 -30 54 C-30.95382057 56.7880909 -31.89006026 59.55004794 -32.58984375 62.4140625 C-34.17493886 68.6231333 -35.98416367 71.94464297 -41 76 C-41.66 76 -42.32 76 -43 76 C-42.67 77.32 -42.34 78.64 -42 80 C-46.75 83 -46.75 83 -49 83 C-49 83.66 -49 84.32 -49 85 C-49.99 85 -50.98 85 -52 85 C-52 84.34 -52 83.68 -52 83 C-51.0925 82.443125 -50.185 81.88625 -49.25 81.3125 C-46.11273087 79.08021235 -44.78494045 77.40288821 -43.05078125 74.02734375 C-41.8720212 71.75308179 -40.54090156 69.61222705 -39.1875 67.4375 C-33.72654941 58.31304739 -29.28654868 49.00139837 -25.5625 39.0625 C-22.39132399 30.6063306 -18.46355267 22.85033078 -14 15 C-13.50391235 14.08021362 -13.50391235 14.08021362 -12.99780273 13.1418457 C-11.15063565 9.76479174 -9.41404852 7.01965079 -6.4375 4.5625 C-5.85871094 4.06878906 -5.27992188 3.57507812 -4.68359375 3.06640625 C-3 2 -3 2 0 2 C0 1.34 0 0.68 0 0 Z M-42 77 C-40 78 -40 78 -40 78 Z " fill="#94ECEF" transform="translate(287,55)"/>
<path d="M0 0 C0.66 0.33 1.32 0.66 2 1 C2.71435547 3.15454102 2.71435547 3.15454102 3.3671875 6.00390625 C3.73263672 7.56709595 3.73263672 7.56709595 4.10546875 9.16186523 C4.35941406 10.28407471 4.61335938 11.40628418 4.875 12.5625 C5.41345204 14.87774623 5.95251319 17.19285088 6.4921875 19.5078125 C6.75225586 20.63348633 7.01232422 21.75916016 7.28027344 22.91894531 C8.14127803 26.60479264 9.06159668 30.27062989 10 33.9375 C10.67024736 36.6241695 11.33656876 39.31165153 12 42 C12.24814453 42.99741211 12.49628906 43.99482422 12.75195312 45.02246094 C13.59839985 48.44926949 14.42560395 51.88032546 15.25 55.3125 C15.52070313 56.39845459 15.79140625 57.48440918 16.0703125 58.60327148 C17.71013997 65.5223502 18.35045255 71.89448604 18 79 C17.01 79 16.02 79 15 79 C14.67 79.99 14.34 80.98 14 82 C7.09647445 82.51137226 2.25172386 80.86964374 -4 78 C-3.01 77.01 -3.01 77.01 -2 76 C-1.31292969 76.30035156 -0.62585938 76.60070312 0.08203125 76.91015625 C0.98308594 77.29042969 1.88414062 77.67070312 2.8125 78.0625 C3.70582031 78.44535156 4.59914063 78.82820313 5.51953125 79.22265625 C8.0919236 80.29461205 8.0919236 80.29461205 11 79 C11 78.34 11 77.68 11 77 C11.99 77 12.98 77 14 77 C15.0748291 70.72532201 14.88341198 66.09339169 13 60 C12.01 60.495 12.01 60.495 11 61 C10.67 58.03 10.34 55.06 10 52 C9.34 52 8.68 52 8 52 C8.01160156 51.30132812 8.02320313 50.60265625 8.03515625 49.8828125 C8.04417969 48.97273438 8.05320312 48.06265625 8.0625 47.125 C8.07410156 46.22007812 8.08570313 45.31515625 8.09765625 44.3828125 C8.16249257 41.9831415 8.16249257 41.9831415 7 40 C7.9375 37.875 7.9375 37.875 9 36 C7.35 36 5.7 36 4 36 C4.66 33.03 5.32 30.06 6 27 C4.68 26.67 3.36 26.34 2 26 C2.33 25.01 2.66 24.02 3 23 C2.45254881 20.90095451 2.45254881 20.90095451 1.5625 18.625 C-0.45674839 12.42040041 -0.27343287 6.46111739 0 0 Z " fill="#93E0EC" transform="translate(369,236)"/>
<path d="M0 0 C2.25187875 2.0762258 3.66897779 3.98614422 5.015625 6.73046875 C5.37640137 7.4479126 5.73717773 8.16535645 6.10888672 8.90454102 C6.4854541 9.65791748 6.86202148 10.41129395 7.25 11.1875 C11.91235412 20.50761344 11.91235412 20.50761344 19 28 C19.99 28 20.98 28 22 28 C22.66 28.99 23.32 29.98 24 31 C31.49829046 33.26594015 39.0400274 33.4914892 46.828125 33.81640625 C48.82523327 33.91019331 50.82234136 34.00398415 52.81943893 34.09799862 C55.59284071 34.22666115 58.36653542 34.3482261 61.14025879 34.46972656 C66.01169177 34.68394221 70.88275689 34.90609842 75.75360107 35.13328552 C78.34101588 35.2532517 80.92862198 35.36917596 83.51641846 35.48060608 C84.68823669 35.53413742 85.86005493 35.58766876 87.06738281 35.64282227 C88.09502747 35.68786392 89.12267212 35.73290558 90.18145752 35.77931213 C92.86048194 35.98907593 95.38048676 36.4123272 98 37 C98 37.33 98 37.66 98 38 C90.06191339 37.93821902 82.12418861 37.86071892 74.18645477 37.76428509 C70.49883801 37.71995471 66.81132231 37.68062206 63.12353516 37.65356445 C23.45680136 37.35346596 23.45680136 37.35346596 15 32 C13.98234073 30.00892752 12.98422146 28.00781177 12 26 C11.195625 25.195625 10.39125 24.39125 9.5625 23.5625 C6.57128398 20.57128398 4.99837005 17.71125867 3 14 C2.67 13.67 2.34 13.34 2 13 C1.60333773 10.81980521 1.25684763 8.6303537 0.9375 6.4375 C0.76089844 5.23996094 0.58429688 4.04242188 0.40234375 2.80859375 C0.26957031 1.88175781 0.13679688 0.95492187 0 0 Z " fill="#D8F8FC" transform="translate(323,103)"/>
<path d="M0 0 C0.66 0 1.32 0 2 0 C2.2144997 8.27015524 2.07422976 15.96235969 0 24 C0.99 24.33 1.98 24.66 3 25 C2.525625 25.53625 2.05125 26.0725 1.5625 26.625 C-0.30295387 29.46048989 -0.58199885 31.65599079 -1 35 C-1.226875 35.7425 -1.45375 36.485 -1.6875 37.25 C-1.790625 37.8275 -1.89375 38.405 -2 39 C-1.34 39.66 -0.68 40.32 0 41 C-0.99 41.99 -1.98 42.98 -3 44 C-0.17588235 44.94137255 1.52918032 45.11725382 4.44921875 45.09765625 C5.29677734 45.09443359 6.14433594 45.09121094 7.01757812 45.08789062 C7.89865234 45.07951172 8.77972656 45.07113281 9.6875 45.0625 C10.58017578 45.05798828 11.47285156 45.05347656 12.39257812 45.04882812 C14.59511987 45.03704983 16.79752599 45.02060164 19 45 C15.63009836 48.36990164 11.81300522 48.22061857 7.1875 48.375 C2.30292086 48.31543196 -0.95755369 47.87738455 -4.65234375 44.58203125 C-7.29559989 41.47907839 -8.61987481 39.00639885 -9 35 C-7.99115108 22.94909241 -3.82647552 11.39274265 0 0 Z " fill="#AEE2ED" transform="translate(199,273)"/>
<path d="M0 0 C0 0.99 0 1.98 0 3 C-5.25714286 7 -5.25714286 7 -8 7 C-8.33 7.99 -8.66 8.98 -9 10 C-14.45967656 11.94327471 -17.5522503 12.45148736 -23 10 C-23 10.66 -23 11.32 -23 12 C-34.35514609 12.73598169 -45.62014878 13.12659909 -57 13 C-57.99 13 -58.98 13 -60 13 C-61.5468978 12.96586181 -63.09377035 12.93057181 -64.640625 12.89453125 C-66.51040805 12.86660419 -68.38020024 12.83928431 -70.25 12.8125 C-71.17941406 12.78736328 -72.10882813 12.76222656 -73.06640625 12.73632812 C-78.88268728 12.67462783 -82.83789571 13.28921243 -88 16 C-88.66 16.33 -89.32 16.66 -90 17 C-90.65772428 20.02934491 -90.65772428 20.02934491 -91 23 C-93 21 -93 21 -93.25 17.5625 C-93 14 -93 14 -91 11 C-86.23915273 9.40022472 -80.87335761 9.79039506 -75.8984375 9.71875 C-74.90735992 9.70034058 -73.91628235 9.68193115 -72.89517212 9.66296387 C-69.72184044 9.60437182 -66.54845194 9.55163616 -63.375 9.5 C-45.89735463 9.21496726 -45.89735463 9.21496726 -28.4296875 8.58203125 C-27.30244766 8.53622925 -27.30244766 8.53622925 -26.1524353 8.48950195 C-16.66014573 7.99686602 -7.98592765 5.20013894 0 0 Z " fill="#ABF4F7" transform="translate(241,132)"/>
<path d="M0 0 C1.10794922 0.19916016 1.10794922 0.19916016 2.23828125 0.40234375 C3.76001953 0.66724609 3.76001953 0.66724609 5.3125 0.9375 C6.79169922 1.19853516 6.79169922 1.19853516 8.30078125 1.46484375 C17.81401771 2.84109866 27.30820486 3.17697128 36.90722656 3.38815308 C78.06189917 4.33042632 78.06189917 4.33042632 89 11 C92.0176165 15.52642475 91.65588075 19.69713434 91 25 C88.47636827 33.13442461 82.84118988 39.01882517 77 45 C76.34 44.67 75.68 44.34 75 44 C75.51949219 43.45472656 76.03898437 42.90945312 76.57421875 42.34765625 C84.69147118 33.8974017 84.69147118 33.8974017 88.21875 23.09375 C88.09258475 17.62183543 88.09258475 17.62183543 85.19921875 13.25390625 C83.01107087 12.00631217 81.2024103 11.34385556 78.75 10.8125 C77.5125 10.544375 76.275 10.27625 75 10 C75 9.34 75 8.68 75 8 C74.42165405 7.97716446 73.84330811 7.95432892 73.24743652 7.93080139 C67.14615173 7.68953445 61.04497372 7.44568677 54.94384766 7.20043945 C52.67662067 7.10962822 50.40936854 7.0194425 48.14208984 6.92993164 C8.48218885 5.36279648 8.48218885 5.36279648 1 3 C0.67 2.01 0.34 1.02 0 0 Z " fill="#B7B3D1" transform="translate(346,132)"/>
<path d="M0 0 C0.66 0 1.32 0 2 0 C3.25080377 4.63919812 4.49565449 9.2799407 5.73535156 13.92211914 C6.15662697 15.49643498 6.57943991 17.07034032 7.00390625 18.64379883 C14.42604648 46.17048636 14.42604648 46.17048636 12 54 C8.91285163 58.14559924 6.02526957 59.91611833 1 61 C-14.58286302 62.66959247 -36.27181793 52.63432234 -49 44 C-49.66 43.01 -50.32 42.02 -51 41 C-45.06745647 42.77976306 -39.80914138 45.47803236 -34.3828125 48.41796875 C-22.99005206 54.42309586 -10.14267275 59.91202743 3 58 C5.72788882 57.18366465 5.72788882 57.18366465 8 56 C12.33295714 47.33408571 7.83790646 34.40883919 5.625 25.625 C5.30336449 24.29849717 4.98304647 22.97167419 4.6640625 21.64453125 C3.49581478 16.84011248 2.31972505 12.06034863 0.89208984 7.32568359 C0 4 0 4 0 0 Z " fill="#80C9D1" transform="translate(379,263)"/>
<path d="M0 0 C0.66 0 1.32 0 2 0 C2.06058594 0.556875 2.12117187 1.11375 2.18359375 1.6875 C2.26738281 2.450625 2.35117188 3.21375 2.4375 4 C2.52515625 4.82113281 2.6128125 5.64226562 2.703125 6.48828125 C2.88801544 8.05255172 3.10178264 9.61401484 3.359375 11.16796875 C4.12422961 15.87546676 3.48429191 18.55765116 2 23 C1.46776906 25.84033556 1.09169181 28.70150379 0.6875 31.5625 C-0.3697097 38.47372723 -2.07082555 44.60193264 -4.79296875 51.07421875 C-6.53098062 55.28706953 -7.78203498 59.6133455 -9 64 C-9.66 63.67 -10.32 63.34 -11 63 C-10.67 61.35 -10.34 59.7 -10 58 C-10.66 57.67 -11.32 57.34 -12 57 C-11.01 57 -10.02 57 -9 57 C-8.7525 55.741875 -8.505 54.48375 -8.25 53.1875 C-7.52957217 49.56981205 -6.78162157 45.9589825 -6.01171875 42.3515625 C-5.83543945 41.52374268 -5.65916016 40.69592285 -5.47753906 39.84301758 C-5.12339706 38.18357734 -4.76734357 36.52454363 -4.40917969 34.8659668 C-2.53869609 26.09109216 -1.75752563 17.5350299 -1.39453125 8.58789062 C-1.35714844 7.76869141 -1.31976563 6.94949219 -1.28125 6.10546875 C-1.25095703 5.36449951 -1.22066406 4.62353027 -1.18945312 3.86010742 C-1 2 -1 2 0 0 Z " fill="#CAF6F6" transform="translate(211,215)"/>
<path d="M0 0 C7.95706739 6.91918904 11.9826721 15.44228497 15.84741211 25.0390625 C16.6909677 27.13361029 17.55353478 29.21949295 18.41992188 31.3046875 C20.89132726 37.30798921 23.18015345 43.23092253 24.875 49.5 C21.20177972 46.33932208 19.91575267 43.51547973 18.4375 38.9375 C16.27838579 32.57206267 13.78847631 26.55173121 10.875 20.5 C10.38902344 19.45328125 9.90304687 18.4065625 9.40234375 17.328125 C5.94568762 10.07887173 2.53079394 3.88279267 -5.125 0.5 C-10.89788702 -0.04979876 -14.03290421 0.53947919 -19.125 3.5 C-20.115 3.83 -21.105 4.16 -22.125 4.5 C-22.82894612 5.81403276 -23.48845658 7.1520257 -24.125 8.5 C-24.7025 9.180625 -25.28 9.86125 -25.875 10.5625 C-29.19089669 14.89158734 -31.59352716 19.68176336 -34.125 24.5 C-34.84375 22.89453125 -34.84375 22.89453125 -35.125 20.5 C-31.07741256 11.89887669 -25.20599459 2.50010826 -16.25 -1.5 C-10.50171348 -3.29355452 -5.36845748 -2.57685959 0 0 Z " fill="#7DAECE" transform="translate(301.125,53.5)"/>
<path d="M0 0 C1.66212971 2.49319456 2.59024275 4.33126427 3.5859375 7.08984375 C3.87726563 7.87423828 4.16859375 8.65863281 4.46875 9.46679688 C5.07073085 11.10797311 5.66713304 12.75120684 6.2578125 14.39648438 C7.95324174 18.92878316 9.46227196 21.63367352 13 25 C14.45737825 27.50470825 15.65352856 30.12389705 16.875 32.75 C20.59908979 40.47287902 24.64021211 47.12942656 31 53 C30.67 53.66 30.34 54.32 30 55 C20.4547544 48.03992509 15.49058211 37.21565037 10 27 C10.33 29.31 10.66 31.62 11 34 C8.09973937 32.54986969 7.95045604 30.69479373 6.875 27.6875 C6.52179688 26.72199219 6.16859375 25.75648437 5.8046875 24.76171875 C5 22 5 22 5 18 C4.34 17.67 3.68 17.34 3 17 C1.89453125 14.19921875 1.89453125 14.19921875 0.8125 10.6875 C0.44769531 9.53636719 0.08289063 8.38523437 -0.29296875 7.19921875 C-0.95478247 4.20460307 -1.08640853 2.80251881 0 0 Z " fill="#C6F5F4" transform="translate(314,78)"/>
<path d="M0 0 C-2 1 -2 1 -5.0625 0 C-16.68098375 -3.50474923 -28.28623148 4.08608601 -38.45654297 8.92480469 C-45.2280052 12.13904002 -52.09047445 15.09388442 -59 18 C-59.59780273 18.27505371 -60.19560547 18.55010742 -60.81152344 18.83349609 C-64.19945468 20.37256428 -66.20010767 21 -70 21 C-70 20.34 -70 19.68 -70 19 C-69.12601563 18.6596875 -68.25203125 18.319375 -67.3515625 17.96875 C-54.44561164 12.90001747 -41.70692769 7.47429446 -29.375 1.125 C-19.19784361 -4.00456789 -10.32074718 -6.08659449 0 0 Z " fill="#9DE9E0" transform="translate(305,291)"/>
<path d="M0 0 C0.66 0.66 1.32 1.32 2 2 C1.04956626 3.33897583 0.08940853 4.67105427 -0.875 6 C-1.40867187 6.7425 -1.94234375 7.485 -2.4921875 8.25 C-2.98976563 8.8275 -3.48734375 9.405 -4 10 C-4.66 10 -5.32 10 -6 10 C-6 10.66 -6 11.32 -6 12 C-6.66 12 -7.32 12 -8 12 C-8.66 13.32 -9.32 14.64 -10 16 C-10.66 16 -11.32 16 -12 16 C-12 16.66 -12 17.32 -12 18 C-15.68905394 22.06849948 -19.87090347 25.43409791 -24.1875 28.8125 C-25.13012695 29.56563477 -25.13012695 29.56563477 -26.09179688 30.33398438 C-30.75536777 34 -30.75536777 34 -33 34 C-33 34.66 -33 35.32 -33 36 C-33.598125 36.268125 -34.19625 36.53625 -34.8125 36.8125 C-37.03012126 37.86353037 -37.03012126 37.86353037 -38.4375 39.5625 C-40 41 -40 41 -42.5625 41.4375 C-43.366875 41.623125 -44.17125 41.80875 -45 42 C-46.1500831 43.96672915 -46.1500831 43.96672915 -47 46 C-48.485 46.495 -48.485 46.495 -50 47 C-50 46.34 -50 45.68 -50 45 C-49.01 44.505 -49.01 44.505 -48 44 C-47.67 43.01 -47.34 42.02 -47 41 C-45.31541676 40.27331704 -43.62739453 39.55286612 -41.91796875 38.88671875 C-38.27919604 37.20443483 -34.81212678 34.62425357 -33 31 C-32.34 31 -31.68 31 -31 31 C-30.67 30.01 -30.34 29.02 -30 28 C-29.01 28 -28.02 28 -27 28 C-26.67 27.01 -26.34 26.02 -26 25 C-23.38502661 23.76132839 -20.74488051 22.91496017 -18 22 C-17.855625 21.360625 -17.71125 20.72125 -17.5625 20.0625 C-17.2840625 19.0415625 -17.2840625 19.0415625 -17 18 C-15.67532254 17.3162955 -14.34136367 16.65035814 -13 16 C-11.80339522 14.00565871 -11.02320455 12.06574622 -10.25 9.875 C-8.40347545 7.10521317 -6.12489677 6.81519046 -3 6 C-3 5.34 -3 4.68 -3 4 C-2.34 4 -1.68 4 -1 4 C-0.67 2.68 -0.34 1.36 0 0 Z " fill="#B7E9EC" transform="translate(427,163)"/>
<path d="M0 0 C2.25187875 2.0762258 3.66897779 3.98614422 5.015625 6.73046875 C5.37640137 7.4479126 5.73717773 8.16535645 6.10888672 8.90454102 C6.4854541 9.65791748 6.86202148 10.41129395 7.25 11.1875 C11.91235412 20.50761344 11.91235412 20.50761344 19 28 C19.99 28 20.98 28 22 28 C22.103125 28.598125 22.20625 29.19625 22.3125 29.8125 C23.08876455 32.28243264 24.07088921 33.32251235 26 35 C17.72727273 34.04545455 17.72727273 34.04545455 15 32 C13.98234073 30.00892752 12.98422146 28.00781177 12 26 C11.195625 25.195625 10.39125 24.39125 9.5625 23.5625 C6.57128398 20.57128398 4.99837005 17.71125867 3 14 C2.67 13.67 2.34 13.34 2 13 C1.60333773 10.81980521 1.25684763 8.6303537 0.9375 6.4375 C0.76089844 5.23996094 0.58429688 4.04242188 0.40234375 2.80859375 C0.26957031 1.88175781 0.13679688 0.95492187 0 0 Z " fill="#CEF7F6" transform="translate(323,103)"/>
<path d="M0 0 C0.886875 0.825 1.77375 1.65 2.6875 2.5 C6.69550247 5.97801868 11.1488611 8.64369541 15.73120117 11.28320312 C17.18522699 12.13798763 18.5972571 13.06343181 20 14 C20 14.66 20 15.32 20 16 C20.99 16 21.98 16 23 16 C23 16.66 23 17.32 23 18 C24.32 18 25.64 18 27 18 C27 19.65 27 21.3 27 23 C28.32 23.33 29.64 23.66 31 24 C31.495 26.475 31.495 26.475 32 29 C27.97195364 26.70573241 24.32897313 24.04087309 20.6875 21.1875 C19.53689586 20.29110477 18.38585512 19.39526968 17.234375 18.5 C16.68072266 18.06945312 16.12707031 17.63890625 15.55664062 17.1953125 C13.5462971 15.65161082 11.49259486 14.17087674 9.4375 12.6875 C6.42574921 10.44766853 4.22361018 8.04716951 2 5 C1.01769502 3.9826127 0.02530403 2.97403883 -1 2 C-0.67 1.34 -0.34 0.68 0 0 Z " fill="#BFF8F4" transform="translate(179,186)"/>
<path d="M0 0 C0.99 0.33 1.98 0.66 3 1 C-10.32024619 12.50384898 -29.49042376 10.46393517 -46.3125 11.125 C-48.38218625 11.21164935 -50.45184803 11.29888532 -52.52148438 11.38671875 C-56.27501195 11.54401538 -60.0285836 11.69965339 -63.7824707 11.84814453 C-64.52696976 11.87764191 -65.27146881 11.90713928 -66.03852844 11.93753052 C-67.69164521 11.99017943 -69.34604506 12 -71 12 C-71 11.34 -71 10.68 -71 10 C-70.35821808 9.96685699 -69.71643616 9.93371399 -69.0552063 9.89956665 C-62.33807503 9.55122917 -55.62154866 9.19258763 -48.90527344 8.828125 C-46.40313374 8.69367781 -43.90085432 8.5618038 -41.3984375 8.43261719 C-37.78865848 8.24580538 -34.17949349 8.04955504 -30.5703125 7.8515625 C-29.46261505 7.79626373 -28.3549176 7.74096497 -27.21365356 7.68399048 C-18.22958676 7.17637607 -9.9846295 6.39154622 -2 2 C-1.34 2 -0.68 2 0 2 C0 1.34 0 0.68 0 0 Z " fill="#B6AFD1" transform="translate(239,128)"/>
<path d="M0 0 C0.66 0 1.32 0 2 0 C2 0.66 2 1.32 2 2 C2.99 2.33 3.98 2.66 5 3 C4.2884375 3.804375 4.2884375 3.804375 3.5625 4.625 C1.69704613 7.46048989 1.41800115 9.65599079 1 13 C0.773125 13.7425 0.54625 14.485 0.3125 15.25 C0.209375 15.8275 0.10625 16.405 0 17 C0.66 17.66 1.32 18.32 2 19 C1.01 19.99 0.02 20.98 -1 22 C1.82411765 22.94137255 3.52918032 23.11725382 6.44921875 23.09765625 C7.29677734 23.09443359 8.14433594 23.09121094 9.01757812 23.08789062 C10.33918945 23.07532227 10.33918945 23.07532227 11.6875 23.0625 C12.58017578 23.05798828 13.47285156 23.05347656 14.39257812 23.04882812 C16.59511987 23.03704983 18.79752599 23.02060164 21 23 C17.63009836 26.36990164 13.81300522 26.22061857 9.1875 26.375 C4.33737924 26.3099374 1.08323016 25.87328691 -2.6640625 22.7109375 C-5.14267868 19.53656941 -6.11283363 15.87818444 -7 12 C-6.01 12.33 -5.02 12.66 -4 13 C-3.67 13.99 -3.34 14.98 -3 16 C-2.814375 14.5459375 -2.814375 14.5459375 -2.625 13.0625 C-2.00136191 8.65184223 -1.01253494 4.33522241 0 0 Z " fill="#75D7E1" transform="translate(197,295)"/>
<path d="M0 0 C0.33 0 0.66 0 1 0 C1.19622241 4.21878192 0.80230168 7.17010894 -1 11 C-1.66 11 -2.32 11 -3 11 C-3.95382057 13.7880909 -4.89006026 16.55004794 -5.58984375 19.4140625 C-7.17493886 25.6231333 -8.98416367 28.94464297 -14 33 C-14.66 33 -15.32 33 -16 33 C-15.67 34.32 -15.34 35.64 -15 37 C-19.75 40 -19.75 40 -22 40 C-22 40.66 -22 41.32 -22 42 C-22.99 42 -23.98 42 -25 42 C-25 41.34 -25 40.68 -25 40 C-24.0925 39.443125 -23.185 38.88625 -22.25 38.3125 C-19.11273087 36.08021235 -17.78494045 34.40288821 -16.05078125 31.02734375 C-14.8720212 28.75308179 -13.54090156 26.61222705 -12.1875 24.4375 C-7.50293258 16.66564769 -3.24478979 8.47780863 0 0 Z M-15 34 C-13 35 -13 35 -13 35 Z " fill="#A0E9E5" transform="translate(260,98)"/>
<path d="M0 0 C0.99 0.33 1.98 0.66 3 1 C1.71034824 2.37562854 0.37310707 3.70766393 -1 5 C-1.66 5 -2.32 5 -3 5 C-3 5.66 -3 6.32 -3 7 C-3.45375 7.37125 -3.9075 7.7425 -4.375 8.125 C-6.90949614 11.04941863 -7.19954485 14.24401816 -8 18 C-8.33 18 -8.66 18 -9 18 C-9.3340054 26.94392234 -9.01568333 34.61125224 -6.55859375 43.29296875 C-5.99896978 46.00499259 -6.07349876 47.42911246 -7 50 C-7.6483289 47.77155786 -8.29356369 45.5422154 -8.9375 43.3125 C-9.29714844 42.07113281 -9.65679687 40.82976562 -10.02734375 39.55078125 C-12.6709417 29.90005621 -14.2836854 18.13339972 -9.41015625 8.9453125 C-6.84114114 5.4013526 -3.79048163 2.22603233 0 0 Z " fill="#D5F2F8" transform="translate(382,206)"/>
<path d="M0 0 C1.4370809 -0.05422947 2.87475462 -0.09289723 4.3125 -0.125 C5.11300781 -0.14820313 5.91351563 -0.17140625 6.73828125 -0.1953125 C9 0 9 0 12 2 C11.1028125 2.12375 10.205625 2.2475 9.28125 2.375 C-0.53463615 3.99746052 -8.19426108 7.27711744 -16.92675781 11.92724609 C-20.49505706 13.77358463 -24.14266551 15.42960541 -27.8125 17.0625 C-28.48853271 17.37348633 -29.16456543 17.68447266 -29.86108398 18.00488281 C-34.64611671 20.1179611 -34.64611671 20.1179611 -38 19 C-37.48203857 18.75878418 -36.96407715 18.51756836 -36.43041992 18.26904297 C-20.29231967 10.9193912 -20.29231967 10.9193912 -5 2 C-2.3125 1.875 -2.3125 1.875 0 2 C0 1.34 0 0.68 0 0 Z " fill="#BFFCF6" transform="translate(285,285)"/>
<path d="M0 0 C0.66 0.33 1.32 0.66 2 1 C1.236875 1.721875 0.47375 2.44375 -0.3125 3.1875 C-3.02012318 5.81098183 -3.02012318 5.81098183 -4.5625 8.625 C-6.52504594 11.8674672 -8.49285 13.61244714 -12.1875 14.5625 C-12.785625 14.706875 -13.38375 14.85125 -14 15 C-14.33 15.66 -14.66 16.32 -15 17 C-15.99 17.33 -16.98 17.66 -18 18 C-18.33 18.66 -18.66 19.32 -19 20 C-20.72726367 21.0102863 -22.45714687 22.01696649 -24.2109375 22.98046875 C-26.2787884 24.15887287 -28.14272683 25.51418146 -30 27 C-30.66 26.67 -31.32 26.34 -32 26 C-31.40832031 25.55269531 -30.81664062 25.10539062 -30.20703125 24.64453125 C-24.92033598 20.63157727 -24.92033598 20.63157727 -20.125 16.0625 C-18 14 -18 14 -15 14 C-15 13.34 -15 12.68 -15 12 C-14.195625 11.731875 -13.39125 11.46375 -12.5625 11.1875 C-11.716875 10.795625 -10.87125 10.40375 -10 10 C-9.67 9.01 -9.34 8.02 -9 7 C-8.34 6.67 -7.68 6.34 -7 6 C-6.34786708 3.97536745 -6.34786708 3.97536745 -6 2 C-4.7934375 1.7834375 -4.7934375 1.7834375 -3.5625 1.5625 C-1.07896294 1.25864751 -1.07896294 1.25864751 0 0 Z " fill="#92E4F3" transform="translate(415,174)"/>
<path d="M0 0 C3.05813353 2.71834092 3.94134747 5.24423489 5.15625 9.0625 C6.11787566 11.27067744 7.21560707 12.40203618 9 14 C13.88372093 18.65116279 13.88372093 18.65116279 15 22 C15.66 22 16.32 22 17 22 C17.185625 22.680625 17.37125 23.36125 17.5625 24.0625 C20.62530766 30.32128087 26.65062339 34.6944042 32 39 C27.81789297 39 26.11432124 36.67917888 23.25 33.9375 C22.71648926 33.43524902 22.18297852 32.93299805 21.63330078 32.41552734 C20.56944596 31.41039911 19.50898716 30.40166288 18.45214844 29.38916016 C17.2204871 28.21092327 15.97497863 27.04718804 14.7265625 25.88671875 C11.41209839 22.73308307 9.54573497 20.37958242 8 16 C7.01 15.67 6.02 15.34 5 15 C3.61328125 12.63671875 3.61328125 12.63671875 2.3125 9.6875 C1.87550781 8.72199219 1.43851563 7.75648438 0.98828125 6.76171875 C0 4 0 4 0 0 Z " fill="#E0C8D8" transform="translate(143,151)"/>
<path d="M0 0 C1.31870367 3.95611101 -0.00558351 6.16568522 -1.5625 9.8125 C-1.97858521 10.81120117 -1.97858521 10.81120117 -2.40307617 11.83007812 C-2.98158543 13.21470147 -3.56407516 14.59766798 -4.15039062 15.97900391 C-4.93047007 17.83460668 -5.67782656 19.7038772 -6.421875 21.57421875 C-10.09775718 30.62969255 -14.80553281 38.75811205 -20 47 C-20.66 46.34 -21.32 45.68 -22 45 C-21.50298584 44.17282471 -21.00597168 43.34564941 -20.49389648 42.4934082 C-15.27150989 33.66279195 -11.02050743 24.64203251 -7.0625 15.1875 C-6.20166158 13.15092928 -5.3383856 11.1154286 -4.47276306 9.08088684 C-3.70390357 7.27095219 -2.94171428 5.45818826 -2.17993164 3.64526367 C-1 1 -1 1 0 0 Z " fill="#8DB4D3" transform="translate(264,80)"/>
<path d="M0 0 C0.33 0 0.66 0 1 0 C1.44051769 6.16724771 0.78605971 10.92237477 -3 16 C-3.99 16.33 -4.98 16.66 -6 17 C-6.33 17.66 -6.66 18.32 -7 19 C-7.66 19 -8.32 19 -9 19 C-9 19.66 -9 20.32 -9 21 C-10.98 21.99 -10.98 21.99 -13 23 C-13 22.34 -13 21.68 -13 21 C-13.99 21.33 -14.98 21.66 -16 22 C-16 21.34 -16 20.68 -16 20 C-15.01 20 -14.02 20 -13 20 C-13 19.34 -13 18.68 -13 18 C-11.92877548 17.10486718 -10.81678975 16.25816398 -9.6875 15.4375 C-5.44240313 11.97439466 -4.2184123 8.22176701 -3 3 C-2.01 3 -1.02 3 0 3 C0 2.01 0 1.02 0 0 Z M-18 22 C-16 23 -16 23 -16 23 Z " fill="#7AC3E3" transform="translate(433,148)"/>
<path d="M0 0 C1.66772461 0.07250977 1.66772461 0.07250977 3.36914062 0.14648438 C4.51962891 0.20255859 5.67011719 0.25863281 6.85546875 0.31640625 C8.61020508 0.3947168 8.61020508 0.3947168 10.40039062 0.47460938 C13.28154149 0.60396717 16.1623179 0.7389209 19.04296875 0.87890625 C19.53796875 1.86890625 19.53796875 1.86890625 20.04296875 2.87890625 C19.44347412 2.8631958 18.84397949 2.84748535 18.22631836 2.83129883 C15.47779998 2.76846495 12.72943333 2.7297639 9.98046875 2.69140625 C9.03751953 2.66626953 8.09457031 2.64113281 7.12304688 2.61523438 C1.25633019 2.55390981 -2.7540231 3.13575322 -7.95703125 5.87890625 C-8.94703125 6.37390625 -8.94703125 6.37390625 -9.95703125 6.87890625 C-10.61475553 9.90825116 -10.61475553 9.90825116 -10.95703125 12.87890625 C-12.95703125 10.87890625 -12.95703125 10.87890625 -13.20703125 7.44140625 C-12.95703125 3.87890625 -12.95703125 3.87890625 -10.95703125 0.87890625 C-7.2737196 -0.25758321 -3.82426625 -0.1765046 0 0 Z " fill="#A3EBF2" transform="translate(160.95703125,142.12109375)"/>
<path d="M0 0 C1.81078492 6.40293549 1.7075222 12.87244975 -1 19 C-1.99387334 20.33790641 -2.9926892 21.67218122 -4 23 C-4 23.99 -4 24.98 -4 26 C-4.99 26.33 -5.98 26.66 -7 27 C-7.28664818 21.29720988 -6.31204692 16.68077462 -4.625 11.25 C-4.40328125 10.49589844 -4.1815625 9.74179687 -3.953125 8.96484375 C-2.9394372 5.60774826 -1.95703854 2.9355578 0 0 Z " fill="#9EF4F2" transform="translate(207,262)"/>
<path d="M0 0 C3 0 3 0 5.1875 2 C5.785625 2.66 6.38375 3.32 7 4 C7.33 3.34 7.66 2.68 8 2 C8 2.99 8 3.98 8 5 C8.70125 5.12375 9.4025 5.2475 10.125 5.375 C14.55014579 6.33698821 18.2178186 7.47854573 22 10 C23.54766142 10.5827119 25.11192222 11.12264187 26.6875 11.625 C27.49574219 11.88539063 28.30398438 12.14578125 29.13671875 12.4140625 C30.05904297 12.70410156 30.05904297 12.70410156 31 13 C27.46905698 14.20220203 24.87101018 13.79532349 21.25 13.0625 C20.26515625 12.86785156 19.2803125 12.67320312 18.265625 12.47265625 C17.51796875 12.31667969 16.7703125 12.16070312 16 12 C16 11.34 16 10.68 16 10 C15.44828125 9.86722656 14.8965625 9.73445313 14.328125 9.59765625 C11.77949398 8.94339359 9.26840657 8.19964936 6.75 7.4375 C5.85796875 7.16808594 4.9659375 6.89867187 4.046875 6.62109375 C3.37140625 6.41613281 2.6959375 6.21117187 2 6 C2 5.01 2 4.02 2 3 C1.34 2.67 0.68 2.34 0 2 C0 1.34 0 0.68 0 0 Z " fill="#A0F7F7" transform="translate(344,304)"/>
<path d="M0 0 C0.598125 0.20625 1.19625 0.4125 1.8125 0.625 C-3.7586185 3.87481913 -9.43792567 6.7861283 -15.2265625 9.625 C-18.55813261 11.27149025 -21.83238222 12.96467147 -25.05078125 14.82421875 C-30.57738095 17.99702381 -30.57738095 17.99702381 -34.30078125 17.13671875 C-34.92339844 16.96785156 -35.54601562 16.79898437 -36.1875 16.625 C-30.51591835 13.68014029 -24.77784179 11.1961322 -18.82421875 8.87109375 C-16.29325409 7.6749786 -15.08972168 6.59649025 -13.1875 4.625 C-11.25 3.74609375 -11.25 3.74609375 -9.1875 3.0625 C-0.03434396 -0.00588754 -0.03434396 -0.00588754 0 0 Z " fill="#AFF3EB" transform="translate(276.1875,288.375)"/>
<path d="M0 0 C0.66 0 1.32 0 2 0 C1.44725956 13.84614801 -1.54943668 27.88432476 -6 41 C-6.66 41 -7.32 41 -8 41 C-6.54758292 32.58455456 -4.73683006 24.29393031 -2.76757812 15.98632812 C-1.5284189 10.65906658 -0.56903787 5.44102501 0 0 Z " fill="#B3BED4" transform="translate(208,231)"/>
<path d="M0 0 C5.95844659 1.78753398 11.23519876 4.5050784 16.6875 7.453125 C24.30034425 11.46201639 31.69050298 13.91033359 40 16 C38.44921875 17.1484375 38.44921875 17.1484375 36 18 C33.43599892 17.34911479 31.23965111 16.62040633 28.8125 15.625 C28.12067627 15.35187988 27.42885254 15.07875977 26.71606445 14.79736328 C21.31532299 12.62543787 15.98263587 10.29200925 10.6875 7.875 C9.96473877 7.55096191 9.24197754 7.22692383 8.49731445 6.89306641 C4.74093342 5.12614788 2.11248657 3.64221823 0 0 Z " fill="#9FEAE3" transform="translate(328,304)"/>
<path d="M0 0 C0.99 0.99 1.98 1.98 3 3 C1.824375 3.433125 1.824375 3.433125 0.625 3.875 C-2.09671632 4.84912254 -2.09671632 4.84912254 -4 7 C-6.0234375 7.5625 -6.0234375 7.5625 -8.375 8 C-12.32209258 8.7392548 -15.70298734 9.53381178 -18.4375 12.625 C-20 14 -20 14 -22.6875 14.1875 C-23.450625 14.125625 -24.21375 14.06375 -25 14 C-24.375 12.125 -24.375 12.125 -23 10 C-21.01724 9.28368497 -19.01340541 8.62501448 -17 8 C-14.95038484 7.1864123 -12.9085507 6.3529471 -10.875 5.5 C-9.35519531 4.86578125 -9.35519531 4.86578125 -7.8046875 4.21875 C-3.61066712 2.57477197 -3.61066712 2.57477197 0 0 Z " fill="#96F7F9" transform="translate(233,303)"/>
<path d="M0 0 C1.37432457 3.81756824 0.67975039 7.07255329 0 11 C-0.99 11.33 -1.98 11.66 -3 12 C-3.06058594 12.56847656 -3.12117187 13.13695312 -3.18359375 13.72265625 C-3.44694002 16.14949339 -3.72282362 18.57470665 -4 21 C-4.144375 22.299375 -4.28875 23.59875 -4.4375 24.9375 C-5 28 -5 28 -7 30 C-7.185625 28.824375 -7.185625 28.824375 -7.375 27.625 C-7.79117993 24.85942178 -7.79117993 24.85942178 -10 23 C-9.828125 20.90625 -9.828125 20.90625 -9.25 18.5 C-8.97929687 17.30890625 -8.97929687 17.30890625 -8.703125 16.09375 C-8 14 -8 14 -6 12 C-6 14.31 -6 16.62 -6 19 C-5.65066406 17.79601562 -5.30132812 16.59203125 -4.94140625 15.3515625 C-4.48187083 13.7760125 -4.02222994 12.20049325 -3.5625 10.625 C-3.33240234 9.8309375 -3.10230469 9.036875 -2.86523438 8.21875 C-2.64287109 7.45820313 -2.42050781 6.69765625 -2.19140625 5.9140625 C-1.98717041 5.2123291 -1.78293457 4.5105957 -1.57250977 3.78759766 C-1 2 -1 2 0 0 Z " fill="#9BEDEF" transform="translate(200,283)"/>
<path d="M0 0 C5.84744044 4.12169154 11.08196388 8.73111556 16.2890625 13.6328125 C18.99812648 16.10873705 18.99812648 16.10873705 22.3359375 18.1796875 C23.21507812 18.78039062 24.09421875 19.38109375 25 20 C25 20.66 25 21.32 25 22 C15.94182536 19.60727462 15.94182536 19.60727462 13.62890625 15.66015625 C11.76038227 12.60868183 9.66182696 10.74455155 6.9375 8.4375 C3.83818387 5.81150087 1.52771038 3.80632926 0 0 Z " fill="#E9F1F4" transform="translate(160,175)"/>
<path d="M0 0 C0.33 0 0.66 0 1 0 C1.06993164 0.5576001 1.13986328 1.1152002 1.21191406 1.68969727 C2.581257 12.40557631 4.17352774 22.79107167 7.23046875 33.1640625 C8 36 8 36 8 39 C7.34 39 6.68 39 6 39 C5.73445313 38.01 5.46890625 37.02 5.1953125 36 C5.02483398 35.36457275 4.85435547 34.72914551 4.67871094 34.07446289 C4.30681189 32.68115327 3.93771048 31.28709416 3.57128906 29.89233398 C2.54372377 25.94678768 2.54372377 25.94678768 1.35791016 22.04711914 C0.32284537 18.66798594 -0.09610665 15.49251296 -0.1171875 11.96484375 C-0.12202148 11.23322021 -0.12685547 10.50159668 -0.13183594 9.74780273 C-0.12195065 6.49730834 -0.0709896 3.24974597 0 0 Z " fill="#C4C5D7" transform="translate(372,223)"/>
<path d="M0 0 C0.66 0 1.32 0 2 0 C3.66214649 3.65849338 5.31577772 7.3207118 6.9621582 10.98632812 C7.52144617 12.22854797 8.08290987 13.46979091 8.64672852 14.70996094 C11.96928119 22.0225302 14.9801394 29.21505035 17 37 C13.32677972 33.83932208 12.04075267 31.01547973 10.5625 26.4375 C8.70802629 20.94255173 6.6000301 15.73350258 4.13671875 10.48828125 C2.5671773 7.05254961 1.27428765 3.55459188 0 0 Z " fill="#84A8C6" transform="translate(309,66)"/>
<path d="M0 0 C0.66 0.66 1.32 1.32 2 2 C1.04956626 3.33897583 0.08940853 4.67105427 -0.875 6 C-1.40867187 6.7425 -1.94234375 7.485 -2.4921875 8.25 C-2.98976563 8.8275 -3.48734375 9.405 -4 10 C-4.66 10 -5.32 10 -6 10 C-6 10.66 -6 11.32 -6 12 C-6.66 12 -7.32 12 -8 12 C-8.66 13.32 -9.32 14.64 -10 16 C-10.66 16 -11.32 16 -12 16 C-12 16.66 -12 17.32 -12 18 C-13.98 18.99 -13.98 18.99 -16 20 C-16 19.01 -16 18.02 -16 17 C-15.01 16.67 -14.02 16.34 -13 16 C-11.83304086 14.00930499 -11.01753468 12.0496816 -10.25 9.875 C-8.40347545 7.10521317 -6.12489677 6.81519046 -3 6 C-3 5.34 -3 4.68 -3 4 C-2.34 4 -1.68 4 -1 4 C-0.67 2.68 -0.34 1.36 0 0 Z " fill="#A0DAEC" transform="translate(427,163)"/>
<path d="M0 0 C3.17729088 2.6540843 4.43281181 5.8388685 6.125 9.5625 C9.36312216 16.41749295 13.58082456 21.66684322 19 27 C18.67 27.66 18.34 28.32 18 29 C9.50153274 22.80320096 4.23690168 13.51995192 0 4 C0 2.68 0 1.36 0 0 Z " fill="#A7B7D4" transform="translate(326,104)"/>
<path d="M0 0 C0.66 0 1.32 0 2 0 C3.20330194 4.24568826 4.38488357 8.49712238 5.5625 12.75 C5.90474609 13.9565625 6.24699219 15.163125 6.59960938 16.40625 C6.91865234 17.56640625 7.23769531 18.7265625 7.56640625 19.921875 C7.86490479 20.99018555 8.16340332 22.05849609 8.47094727 23.15917969 C8.98533654 25.92126257 8.94772713 27.39581066 8 30 C8 29.01 8 28.02 8 27 C7.34 27 6.68 27 6 27 C5.73445313 25.92621094 5.46890625 24.85242188 5.1953125 23.74609375 C4.83860579 22.3098799 4.48183134 20.87368288 4.125 19.4375 C3.95097656 18.73302734 3.77695312 18.02855469 3.59765625 17.30273438 C2.75444037 13.91425574 1.87080182 10.56919091 0.8671875 7.22265625 C0 4 0 4 0 0 Z " fill="#ACC8DD" transform="translate(379,263)"/>
<path d="M0 0 C0.33 0.66 0.66 1.32 1 2 C10.57 2 20.14 2 30 2 C30 2.33 30 2.66 30 3 C29.21052979 3.02505615 28.42105957 3.0501123 27.60766602 3.07592773 C13.05976974 3.54296 -1.47674743 4.01216661 -16 5 C-12.05034431 2.3668962 -9.45124115 1.87725661 -4.8125 1.9375 C-3.91144531 1.94652344 -3.01039063 1.95554688 -2.08203125 1.96484375 C-1.39496094 1.97644531 -0.70789063 1.98804688 0 2 C0 1.34 0 0.68 0 0 Z " fill="#DCF1FA" transform="translate(167,138)"/>
<path d="M0 0 C0.99 0.33 1.98 0.66 3 1 C2.67 1.66 2.34 2.32 2 3 C2.66 3.33 3.32 3.66 4 4 C-0.4143204 6.26635607 -3.52801404 5.97753947 -8.375 5.25 C-9.64085937 5.06953125 -10.90671875 4.8890625 -12.2109375 4.703125 C-15.9233326 4.01422694 -19.39371931 3.09958946 -23 2 C-23 1.67 -23 1.34 -23 1 C-16.375 0.875 -16.375 0.875 -13 2 C-10.93854893 2.068991 -8.87498599 2.08467727 -6.8125 2.0625 C-5.72582031 2.05347656 -4.63914062 2.04445313 -3.51953125 2.03515625 C-2.68808594 2.02355469 -1.85664063 2.01195312 -1 2 C-0.67 1.34 -0.34 0.68 0 0 Z " fill="#AFF3F3" transform="translate(384,315)"/>
<path d="M0 0 C0 0.99 0 1.98 0 3 C-1.828125 4.82421875 -1.828125 4.82421875 -4.25 6.6875 C-5.03890625 7.31011719 -5.8278125 7.93273437 -6.640625 8.57421875 C-9 10 -9 10 -13 10 C-13.33 11.32 -13.66 12.64 -14 14 C-14.66 14 -15.32 14 -16 14 C-16 14.66 -16 15.32 -16 16 C-17.98 16.99 -19.96 17.98 -22 19 C-21.3125 16.625 -21.3125 16.625 -20 14 C-18.34795544 13.29788106 -16.68076231 12.63028587 -15 12 C-14.69707031 11.36191406 -14.39414062 10.72382813 -14.08203125 10.06640625 C-12.76153084 7.54458416 -11.76627933 7.10448675 -9.1875 6 C-5.69651054 4.39757861 -2.90858454 2.54501148 0 0 Z " fill="#9CECF1" transform="translate(393,194)"/>
<path d="M0 0 C1.65 0 3.3 0 5 0 C5.24492187 0.60070312 5.48984375 1.20140625 5.7421875 1.8203125 C7.23004265 4.39864535 8.60483403 5.3207513 11.125 6.875 C14.30809972 8.90950549 17.44433391 10.96469597 20.5 13.1875 C21.1496875 13.65542969 21.799375 14.12335938 22.46875 14.60546875 C24 16 24 16 25 19 C20.00934802 16.67041522 15.78951467 13.32067538 11.375 10.0625 C10.50359375 9.42892578 9.6321875 8.79535156 8.734375 8.14257812 C7.90164062 7.52962891 7.06890625 6.91667969 6.2109375 6.28515625 C5.45087402 5.72707275 4.69081055 5.16898926 3.90771484 4.59399414 C2 3 2 3 0 0 Z " fill="#E3CCD4" transform="translate(181,196)"/>
<path d="M0 0 C0.33 0.66 0.66 1.32 1 2 C1.66 2 2.32 2 3 2 C3.7933855 4.04099935 4.5846303 6.0828309 5.375 8.125 C5.81585938 9.26195313 6.25671875 10.39890625 6.7109375 11.5703125 C7.13632812 12.70210937 7.56171875 13.83390625 8 15 C8.40476562 16.06992188 8.80953125 17.13984375 9.2265625 18.2421875 C10 21 10 21 9 24 C8.70996094 23.18595703 8.70996094 23.18595703 8.4140625 22.35546875 C8.15367187 21.64003906 7.89328125 20.92460938 7.625 20.1875 C7.24214844 19.12595703 7.24214844 19.12595703 6.8515625 18.04296875 C5.9734231 15.75226641 5.9734231 15.75226641 4 13 C3.01 13.33 2.02 13.66 1 14 C1.20625 13.0925 1.4125 12.185 1.625 11.25 C2.02826837 7.75500747 1.66091728 6.93103049 0 4 C0 2.68 0 1.36 0 0 Z " fill="#92EEF3" transform="translate(303,65)"/>
<path d="M0 0 C6.15947951 -0.37711099 10.54689627 -0.00477144 16 3 C16.99 4.485 16.99 4.485 18 6 C17.01 7.485 17.01 7.485 16 9 C15.01 8.01 14.02 7.02 13 6 C12.67 6.66 12.34 7.32 12 8 C11.67 6.35 11.34 4.7 11 3 C9.741875 3.061875 8.48375 3.12375 7.1875 3.1875 C4.37934854 3.32560581 3.40974822 3.35160213 1.23828125 1.48828125 C0.82964844 0.99714844 0.42101562 0.50601563 0 0 Z " fill="#9ED9E8" transform="translate(416,142)"/>
<path d="M0 0 C1.40310806 4.20932419 -0.36650069 6.79594577 -2.125 10.625 C-2.4454126 11.33978516 -2.7658252 12.05457031 -3.09594727 12.79101562 C-5.46702713 18.01248023 -8.03773425 23.08564207 -11 28 C-11.99 27.67 -12.98 27.34 -14 27 C-13.56429687 26.29617187 -13.12859375 25.59234375 -12.6796875 24.8671875 C-8.53408105 17.99373612 -5.19639683 11.15696016 -2.1640625 3.73828125 C-1 1 -1 1 0 0 Z " fill="#C1F4FA" transform="translate(260,95)"/>
<path d="M0 0 C3.52558704 0.67863413 6.25767868 2.11986951 9.375 3.875 C13.21220532 6.01191756 17.05103945 8.07888406 21 10 C21 10.66 21 11.32 21 12 C15.89545207 11.4462522 12.03424443 8.97407204 7.6875 6.4375 C6.94693359 6.01275391 6.20636719 5.58800781 5.44335938 5.15039062 C3.62531882 4.10648347 1.81216252 3.05407808 0 2 C0 1.34 0 0.68 0 0 Z " fill="#ACEDE5" transform="translate(306,292)"/>
<path d="M0 0 C5.9057352 2.8347529 9.24997362 7.80765579 13 13 C12.01 13 11.02 13 10 13 C8.80637251 11.27587141 7.61382388 9.55097336 6.4296875 7.8203125 C3.33733629 3.88305659 -0.10152096 2.3023219 -4.89453125 1.5390625 C-7.59901237 1.28215415 -10.2855173 1.09817297 -13 1 C-8.50169602 -1.62570685 -4.95026364 -1.15967715 0 0 Z " fill="#63A6DC" transform="translate(298,52)"/>
<path d="M0 0 C1.16144531 0.00902344 2.32289063 0.01804688 3.51953125 0.02734375 C4.39996094 0.03894531 5.28039062 0.05054688 6.1875 0.0625 C6.1875 0.3925 6.1875 0.7225 6.1875 1.0625 C4.90166016 1.20945313 4.90166016 1.20945313 3.58984375 1.359375 C-3.22128452 2.25012007 -8.07264171 3.31911416 -13.8125 7.0625 C-14.8025 7.0625 -15.7925 7.0625 -16.8125 7.0625 C-16.8125 8.3825 -16.8125 9.7025 -16.8125 11.0625 C-17.4725 11.0625 -18.1325 11.0625 -18.8125 11.0625 C-17.57720063 6.12130254 -16.15061434 3.78643226 -11.8125 1.0625 C-7.84955918 -0.00072803 -4.08871958 -0.0413002 0 0 Z " fill="#D3B8D4" transform="translate(160.8125,138.9375)"/>
<path d="M0 0 C-1 3 -1 3 -3 4 C-6.47809976 11.09532351 -6.68192435 18.19069441 -7 26 C-9.42986076 23.57013924 -9.29647846 22.90032027 -9.3125 19.5625 C-9.18855246 13.87743928 -8.32781115 8.22020337 -6 3 C-2.72258065 0 -2.72258065 0 0 0 Z " fill="#BBF0F0" transform="translate(377,210)"/>
<path d="M0 0 C0.99 0.33 1.98 0.66 3 1 C1.71034824 2.37562854 0.37310707 3.70766393 -1 5 C-1.66 5 -2.32 5 -3 5 C-3 5.66 -3 6.32 -3 7 C-3.45375 7.37125 -3.9075 7.7425 -4.375 8.125 C-6.90949614 11.04941863 -7.19954485 14.24401816 -8 18 C-10 17 -10 17 -10.8125 15.3125 C-11.10482468 11.70716228 -9.96309476 10.03387372 -8 7 C-5.53173504 4.40344684 -3.03706674 1.91653607 0 0 Z " fill="#E1F4F8" transform="translate(382,206)"/>
<path d="M0 0 C3.0831351 1.19899698 6.06279492 2.47700477 9 4 C9 4.66 9 5.32 9 6 C9.66 6.33 10.32 6.66 11 7 C10.67 7.66 10.34 8.32 10 9 C10.99 9 11.98 9 13 9 C14.0260734 10.31337396 15.02727325 11.64664105 16 13 C16.66 13 17.32 13 18 13 C17.67 14.32 17.34 15.64 17 17 C13.3942207 14.21839883 10.17887165 11.25834344 7 8 C6.113125 7.13375 5.22625 6.2675 4.3125 5.375 C2 3 2 3 0 0 Z " fill="#A8F5F1" transform="translate(159,170)"/>
<path d="M0 0 C0.33 0.66 0.66 1.32 1 2 C-0.65 3.65 -2.3 5.3 -4 7 C-4 6.01 -4 5.02 -4 4 C-3.34 4 -2.68 4 -2 4 C-1.34 2.68 -0.68 1.36 0 0 Z M-7 7 C-6.01 7.33 -5.02 7.66 -4 8 C-5.98 8.99 -5.98 8.99 -8 10 C-7.67 11.32 -7.34 12.64 -7 14 C-11.75 17 -11.75 17 -14 17 C-14 17.66 -14 18.32 -14 19 C-14.99 19 -15.98 19 -17 19 C-17 18.34 -17 17.68 -17 17 C-15.6078125 16.1028125 -15.6078125 16.1028125 -14.1875 15.1875 C-10.96830552 12.97824889 -9.7505337 11.40893405 -8 8 C-7.67 7.67 -7.34 7.34 -7 7 Z M-7 11 C-5 12 -5 12 -5 12 Z " fill="#A1F5F2" transform="translate(252,121)"/>
<path d="M0 0 C0.66 0.33 1.32 0.66 2 1 C0.35608965 2.69528255 -1.30631597 4.35505508 -3 6 C-3.97646484 6.95326172 -3.97646484 6.95326172 -4.97265625 7.92578125 C-5.66230469 8.56902344 -6.35195313 9.21226562 -7.0625 9.875 C-7.71347656 10.49117187 -8.36445313 11.10734375 -9.03515625 11.7421875 C-11 13 -11 13 -13.24609375 12.6953125 C-13.82488281 12.46585938 -14.40367187 12.23640625 -15 12 C-14.195625 11.731875 -13.39125 11.46375 -12.5625 11.1875 C-11.716875 10.795625 -10.87125 10.40375 -10 10 C-9.67 9.01 -9.34 8.02 -9 7 C-8.34 6.67 -7.68 6.34 -7 6 C-6.34786708 3.97536745 -6.34786708 3.97536745 -6 2 C-4.7934375 1.7834375 -4.7934375 1.7834375 -3.5625 1.5625 C-1.07896294 1.25864751 -1.07896294 1.25864751 0 0 Z " fill="#85DAF2" transform="translate(415,174)"/>
<path d="M0 0 C0.75925781 0.30035156 1.51851563 0.60070312 2.30078125 0.91015625 C3.29464844 1.29042969 4.28851563 1.67070312 5.3125 2.0625 C6.29863281 2.44535156 7.28476562 2.82820313 8.30078125 3.22265625 C11.06233263 4.29389848 11.06233263 4.29389848 14 3 C14 2.34 14 1.68 14 1 C15.32 0.67 16.64 0.34 18 0 C18.042721 1.66611905 18.04063832 3.33382885 18 5 C17 6 17 6 13.5625 6.3125 C8.23238175 6.28347939 3.775864 4.19219987 -1 2 C-0.67 1.34 -0.34 0.68 0 0 Z " fill="#8EEFF5" transform="translate(366,312)"/>
<path d="M0 0 C0.66 0 1.32 0 2 0 C2 0.66 2 1.32 2 2 C3.65 1.67 5.3 1.34 7 1 C7 1.66 7 2.32 7 3 C8.32 3.33 9.64 3.66 11 4 C11 4.66 11 5.32 11 6 C11.99 6 12.98 6 14 6 C14 6.99 14 7.98 14 9 C8.76727367 7.36041242 3.84803364 5.61047965 -1 3 C-0.67 2.01 -0.34 1.02 0 0 Z " fill="#A4F6F0" transform="translate(309,288)"/>
<path d="M0 0 C0.66 0.33 1.32 0.66 2 1 C-0.06178074 2.75085334 -2.12439877 4.50070381 -4.1875 6.25 C-4.76564453 6.74113281 -5.34378906 7.23226562 -5.93945312 7.73828125 C-9.25231411 10.54579056 -12.5936212 13.30568908 -16 16 C-15.34 14.35 -14.68 12.7 -14 11 C-13.34 11 -12.68 11 -12 11 C-12 10.34 -12 9.68 -12 9 C-10.37373596 7.61767557 -8.7074998 6.28062485 -7 5 C-7.66 4.34 -8.32 3.68 -9 3 C-7.88625 2.87625 -6.7725 2.7525 -5.625 2.625 C-1.96896323 2.3534187 -1.96896323 2.3534187 0 0 Z " fill="#DCCEDB" transform="translate(391,202)"/>
<path d="M0 0 C1.32 0 2.64 0 4 0 C4.33 0.66 4.66 1.32 5 2 C5.99 2.33 6.98 2.66 8 3 C8.433125 3.45375 8.86625 3.9075 9.3125 4.375 C11.05249123 6.23744674 11.05249123 6.23744674 14.125 7.375 C17 9 17 9 17.875 11.6875 C17.91625 12.450625 17.9575 13.21375 18 14 C13.79005151 11.60564135 10.00840502 8.8311963 6.1875 5.875 C5.2912793 5.19244141 5.2912793 5.19244141 4.37695312 4.49609375 C2.89766192 3.35661687 1.44603849 2.18139016 0 1 C0 0.67 0 0.34 0 0 Z " fill="#CCF5F2" transform="translate(193,201)"/>
<path d="M0 0 C1.10794922 0.19916016 1.10794922 0.19916016 2.23828125 0.40234375 C9.14813917 1.60520339 16.0061957 2.47684141 23 3 C23 3.33 23 3.66 23 4 C15.25492596 4.88583536 8.47319306 5.49106435 1 3 C0.67 2.01 0.34 1.02 0 0 Z " fill="#B1C3D9" transform="translate(346,132)"/>
<path d="M0 0 C1.11083984 1.75683594 1.11083984 1.75683594 2 4 C1.40087891 5.92285156 1.40087891 5.92285156 0.2265625 7.890625 C-0.1859375 8.59960938 -0.5984375 9.30859375 -1.0234375 10.0390625 C-1.46945313 10.76867187 -1.91546875 11.49828125 -2.375 12.25 C-2.81328125 12.99507812 -3.2515625 13.74015625 -3.703125 14.5078125 C-4.78779836 16.34704125 -5.89207517 18.17468324 -7 20 C-7.99 20 -8.98 20 -10 20 C-9.44570312 18.97519531 -8.89140625 17.95039062 -8.3203125 16.89453125 C-7.58840237 15.53392909 -6.85663929 14.17324782 -6.125 12.8125 C-5.57779297 11.80219727 -5.57779297 11.80219727 -5.01953125 10.77148438 C-3.12640594 7.2433872 -1.38919466 3.76544867 0 0 Z " fill="#ABC8E1" transform="translate(252,106)"/>
<path d="M0 0 C0.66 0 1.32 0 2 0 C2.09796875 0.6290625 2.1959375 1.258125 2.296875 1.90625 C3.09273434 6.46185861 4.00740961 10.39630044 6.1875 14.5 C6.785625 15.655 7.38375 16.81 8 18 C7.67 18.66 7.34 19.32 7 20 C3.50346136 16.26232076 2.08778191 12.80723667 0.7109375 7.98828125 C0.09013376 5.80496781 0.09013376 5.80496781 -2 4 C-1.34 4 -0.68 4 0 4 C0 2.68 0 1.36 0 0 Z " fill="#ECEDF7" transform="translate(144,146)"/>
<path d="M0 0 C0 0.66 0 1.32 0 2 C-2.43254466 2.89163384 -4.8693051 3.76348775 -7.3125 4.625 C-8.00279297 4.88023437 -8.69308594 5.13546875 -9.40429688 5.3984375 C-11.23674226 6.03580981 -13.11840502 6.52703077 -15 7 C-15.99 6.34 -16.98 5.68 -18 5 C-15.75267898 4.15875684 -13.50261215 3.32685168 -11.25 2.5 C-10.61578125 2.26152344 -9.9815625 2.02304687 -9.328125 1.77734375 C-5.96713393 0.55198242 -3.63128413 0 0 0 Z " fill="#8FE5E2" transform="translate(234,312)"/>
<path d="M0 0 C0.66 0 1.32 0 2 0 C2.86329773 2.45546966 3.71589436 4.91378043 4.5625 7.375 C4.80935547 8.07367188 5.05621094 8.77234375 5.31054688 9.4921875 C5.93091049 11.30959075 6.47106524 13.15391397 7 15 C6.67 15.66 6.34 16.32 6 17 C3 13.375 3 13.375 3 10 C2.34 10 1.68 10 1 10 C0.63720544 8.71073008 0.28503302 7.41846728 -0.0625 6.125 C-0.35833984 5.04605469 -0.35833984 5.04605469 -0.66015625 3.9453125 C-1 2 -1 2 0 0 Z " fill="#98F3F0" transform="translate(313,89)"/>
<path d="M0 0 C0 3 0 3 -1.328125 4.3515625 C-7.34892621 8.34095517 -12.8687384 8.8692602 -20 9 C-20 8.67 -20 8.34 -20 8 C-18.71416016 7.63648438 -18.71416016 7.63648438 -17.40234375 7.265625 C-11.10105309 5.4185725 -5.512818 3.58974195 0 0 Z " fill="#BAF8F6" transform="translate(241,132)"/>
<path d="M0 0 C0.66 0 1.32 0 2 0 C2 0.66 2 1.32 2 2 C2.99 2.33 3.98 2.66 5 3 C4.2884375 3.804375 4.2884375 3.804375 3.5625 4.625 C1.7161362 7.43147297 1.50034127 9.71204311 1 13 C0.34 13.66 -0.32 14.32 -1 15 C-1.10251672 9.87416389 -1.03590199 5.05002222 0 0 Z " fill="#8CF1F5" transform="translate(197,295)"/>
<path d="M0 0 C2.95451259 2.95451259 4.38502517 5.30626344 6.25 9 C6.79140625 10.051875 7.3328125 11.10375 7.890625 12.1875 C9 15 9 15 8 18 C7.67 16.68 7.34 15.36 7 14 C6.34 14 5.68 14 5 14 C5 13.01 5 12.02 5 11 C4.34 11 3.68 11 3 11 C2.01 7.37 1.02 3.74 0 0 Z " fill="#D8F6FA" transform="translate(323,103)"/>
<path d="M0 0 C0.89138672 0.27263672 0.89138672 0.27263672 1.80078125 0.55078125 C8.17086777 2.48261153 14.57058358 4.27652526 21 6 C19.51171875 7.171875 19.51171875 7.171875 17 8 C14.11645873 7.21703236 11.56074904 6.36395695 8.8125 5.25 C8.07580078 4.9715625 7.33910156 4.693125 6.58007812 4.40625 C1.14265179 2.28530357 1.14265179 2.28530357 0 0 Z " fill="#90D6D4" transform="translate(347,314)"/>
<path d="M0 0 C1.56393356 3.97376829 0.36145292 6.81377903 -0.9375 10.75 C-1.31777344 11.92046875 -1.69804687 13.0909375 -2.08984375 14.296875 C-2.39019531 15.18890625 -2.69054687 16.0809375 -3 17 C-3.66 17 -4.32 17 -5 17 C-4.71617054 15.24871182 -4.42260471 13.49899997 -4.125 11.75 C-3.96257812 10.77546875 -3.80015625 9.8009375 -3.6328125 8.796875 C-3.04726724 6.20890953 -2.29107323 4.29750039 -1 2 C-0.67 1.34 -0.34 0.68 0 0 Z " fill="#B3C8E1" transform="translate(205,255)"/>
<path d="M0 0 C3.58273331 1.65356922 6.80973467 3.67980703 10 6 C10 6.66 10 7.32 10 8 C6.20696275 6.99806563 3.28463659 6.18975773 0 4 C0 2.68 0 1.36 0 0 Z " fill="#EAE3E9" transform="translate(175,189)"/>
<path d="M0 0 C1.15570704 3.46712111 1.32835293 6.5414956 1.5625 10.1875 C1.64628906 11.45980469 1.73007813 12.73210937 1.81640625 14.04296875 C1.87699219 15.01878906 1.93757812 15.99460937 2 17 C1.34 17.33 0.68 17.66 0 18 C-0.185625 16.824375 -0.185625 16.824375 -0.375 15.625 C-0.79117993 12.85942178 -0.79117993 12.85942178 -3 11 C-2.79296875 8.90625 -2.79296875 8.90625 -2.1875 6.5 C-1.99542969 5.7059375 -1.80335938 4.911875 -1.60546875 4.09375 C-1 2 -1 2 0 0 Z " fill="#9EDBEB" transform="translate(193,295)"/>
<path d="M0 0 C0.33 0.66 0.66 1.32 1 2 C0.34 2 -0.32 2 -1 2 C-1 2.66 -1 3.32 -1 4 C-0.34 4.33 0.32 4.66 1 5 C0.34 5 -0.32 5 -1 5 C-1 5.66 -1 6.32 -1 7 C-2.98 7.99 -2.98 7.99 -5 9 C-5 8.34 -5 7.68 -5 7 C-5.99 7.33 -6.98 7.66 -8 8 C-8 7.34 -8 6.68 -8 6 C-7.01 6 -6.02 6 -5 6 C-5 5.34 -5 4.68 -5 4 C-3.37373596 2.61767557 -1.7074998 1.28062485 0 0 Z M-10 8 C-8 9 -8 9 -8 9 Z " fill="#7ACCEF" transform="translate(425,162)"/>
<path d="M0 0 C4.07296876 -0.49873087 7.56775103 -0.88737164 11.15625 1.3359375 C12.86161784 2.82463976 14.46275038 4.33917726 16 6 C15.67 6.99 15.34 7.98 15 9 C13.62437146 7.71034824 12.29233607 6.37310707 11 5 C11 4.34 11 3.68 11 3 C7.37 2.34 3.74 1.68 0 1 C0 0.67 0 0.34 0 0 Z " fill="#9CEBF0" transform="translate(287,55)"/>
<path d="M0 0 C0.99 0.33 1.98 0.66 3 1 C2.38125 1.433125 1.7625 1.86625 1.125 2.3125 C-1.2197245 3.99740483 -1.2197245 3.99740483 -3 7 C-4.9375 8.25 -4.9375 8.25 -7 9 C-7.99 8.67 -8.98 8.34 -10 8 C-9.01 7.67 -8.02 7.34 -7 7 C-6.67 6.01 -6.34 5.02 -6 4 C-3.9375 3.3125 -3.9375 3.3125 -2 3 C-2 2.34 -2 1.68 -2 1 C-1.34 0.67 -0.68 0.34 0 0 Z " fill="#E7EEF0" transform="translate(396,196)"/>
<path d="M0 0 C-3.13334885 2.53078176 -6.24530187 4.51376532 -10 6 C-12.1875 5.07421875 -12.1875 5.07421875 -14 4 C-12.23494565 3.13395466 -10.46271926 2.28251358 -8.6875 1.4375 C-7.70136719 0.96183594 -6.71523438 0.48617188 -5.69921875 -0.00390625 C-3 -1 -3 -1 0 0 Z " fill="#ABEAE4" transform="translate(264,300)"/>
<path d="M0 0 C2.37487575 2.13011139 3.53695532 3.86282876 4.5625 6.875 C4.80742187 7.57367188 5.05234375 8.27234375 5.3046875 8.9921875 C5.53414062 9.65476563 5.76359375 10.31734375 6 11 C6.66066719 12.66905395 7.32438252 14.3369416 8 16 C5 15 5 15 3.61328125 12.63671875 C3.18402344 11.66347656 2.75476563 10.69023437 2.3125 9.6875 C1.87550781 8.72199219 1.43851563 7.75648438 0.98828125 6.76171875 C0 4 0 4 0 0 Z " fill="#DBB6CB" transform="translate(143,151)"/>
<path d="M0 0 C0.66 0 1.32 0 2 0 C2 0.66 2 1.32 2 2 C2.639375 2.28875 3.27875 2.5775 3.9375 2.875 C6 4 6 4 7 6 C8.97888961 6.72693904 10.97954558 7.39816251 13 8 C9.95473746 9.33991552 8.65402362 8.89859313 5.375 7.9375 C2 6 2 6 0.5625 2.8125 C0.376875 1.884375 0.19125 0.95625 0 0 Z " fill="#BEFAF2" transform="translate(336,129)"/>
<path d="M0 0 C0 0.66 0 1.32 0 2 C2.31 2 4.62 2 7 2 C7 2.33 7 2.66 7 3 C-1.415 3.495 -1.415 3.495 -10 4 C-8 1 -8 1 -5.5625 0.3125 C-3 0 -3 0 0 0 Z " fill="#A8F6F0" transform="translate(293,282)"/>
<path d="M0 0 C1.64666203 0.1135629 3.29236082 0.24117381 4.9375 0.375 C5.85402344 0.44460937 6.77054687 0.51421875 7.71484375 0.5859375 C8.84599609 0.79089844 8.84599609 0.79089844 10 1 C10.33 1.66 10.66 2.32 11 3 C8.99967627 4.00016187 7.16874252 4.49396008 5 5 C4.67 4.01 4.34 3.02 4 2 C2.68 2 1.36 2 0 2 C0 1.34 0 0.68 0 0 Z " fill="#A1F8F1" transform="translate(340,137)"/>
<path d="M0 0 C-0.33 0.99 -0.66 1.98 -1 3 C-1.66 3 -2.32 3 -3 3 C-3.33 3.99 -3.66 4.98 -4 6 C-5.84765625 7.60546875 -5.84765625 7.60546875 -8.0625 9.1875 C-8.79597656 9.71730469 -9.52945312 10.24710938 -10.28515625 10.79296875 C-10.85105469 11.19128906 -11.41695313 11.58960938 -12 12 C-10.53033642 8.60140297 -8.61962486 6.35036291 -6 3.75 C-5.29875 3.04359375 -4.5975 2.3371875 -3.875 1.609375 C-2 0 -2 0 0 0 Z " fill="#D8BFCE" transform="translate(420,179)"/>
<path d="M0 0 C2.7064107 2.52598332 4.39884942 4.69095547 6 8 C6.53625 8.53625 7.0725 9.0725 7.625 9.625 C8.07875 10.07875 8.5325 10.5325 9 11 C9 11.66 9 12.32 9 13 C8.34 13 7.68 13 7 13 C5.2734375 11.171875 5.2734375 11.171875 3.375 8.75 C2.74335938 7.96109375 2.11171875 7.1721875 1.4609375 6.359375 C0 4 0 4 0 0 Z " fill="#B1DDE1" transform="translate(151,160)"/>
<path d="M0 0 C2.58926331 2.58926331 2.37398043 4.02705279 2.625 7.625 C2.69976562 8.62789063 2.77453125 9.63078125 2.8515625 10.6640625 C2.90054687 11.43492187 2.94953125 12.20578125 3 13 C2.01 13.33 1.02 13.66 0 14 C0.01160156 13.30132812 0.02320313 12.60265625 0.03515625 11.8828125 C0.04417969 10.97273438 0.05320312 10.06265625 0.0625 9.125 C0.07410156 8.22007812 0.08570313 7.31515625 0.09765625 6.3828125 C0.16249257 3.9831415 0.16249257 3.9831415 -1 2 C-0.67 1.34 -0.34 0.68 0 0 Z " fill="#83E0F4" transform="translate(377,274)"/>
<path d="M0 0 C0.33 0.66 0.66 1.32 1 2 C-0.125 4.5625 -0.125 4.5625 -2 7 C-4.6875 7.8125 -4.6875 7.8125 -7 8 C-7 7.34 -7 6.68 -7 6 C-6.34 6 -5.68 6 -5 6 C-4.67 5.01 -4.34 4.02 -4 3 C-3.01 3 -2.02 3 -1 3 C-0.67 2.01 -0.34 1.02 0 0 Z " fill="#AAE9EE" transform="translate(401,188)"/>
<path d="M0 0 C2.9008605 0.35298081 3.89516676 0.88728296 5.921875 3.06640625 C6.52515625 3.89011719 7.1284375 4.71382812 7.75 5.5625 C8.36359375 6.38878906 8.9771875 7.21507812 9.609375 8.06640625 C10.06828125 8.70449219 10.5271875 9.34257813 11 10 C10.01 10 9.02 10 8 10 C6.71875 8.57421875 6.71875 8.57421875 5.5 6.6875 C3.85384241 4.1707783 2.1894708 2.06854072 0 0 Z " fill="#70A4C9" transform="translate(300,55)"/>
<path d="M0 0 C0.33 0 0.66 0 1 0 C1.46450943 6.50313209 0.32575612 10.4174808 -3 16 C-3.33 14.68 -3.66 13.36 -4 12 C-3.34 12 -2.68 12 -2 12 C-2.04125 11.319375 -2.0825 10.63875 -2.125 9.9375 C-1.97450035 6.40075832 -1.05624147 3.36676967 0 0 Z " fill="#8FC2DD" transform="translate(433,148)"/>
<path d="M0 0 C2.97837763 2.55289511 4.29394232 5.51370822 6 9 C6.66 9.66 7.32 10.32 8 11 C7.34 11.66 6.68 12.32 6 13 C2.10014426 8.84015388 1.10830253 5.44915409 0 0 Z " fill="#D2E9F4" transform="translate(319,93)"/>
<path d="M0 0 C0.33 0 0.66 0 1 0 C1.2295711 3.36704285 1.33943529 5.41370268 -0.375 8.375 C-0.91125 8.91125 -1.4475 9.4475 -2 10 C-2.66 10 -3.32 10 -4 10 C-4.33 9.01 -4.66 8.02 -5 7 C-4.0409375 6.1028125 -4.0409375 6.1028125 -3.0625 5.1875 C-0.79689611 3.09189663 -0.79689611 3.09189663 0 0 Z " fill="#B4E7F1" transform="translate(269,72)"/>
<path d="M0 0 C2.00293347 3.00440021 2.49271626 4.70993945 3.125 8.1875 C3.37636719 9.53908203 3.37636719 9.53908203 3.6328125 10.91796875 C3.75398438 11.60503906 3.87515625 12.29210937 4 13 C3.34 13 2.68 13 2 13 C0.54815522 8.46298506 -0.23509196 4.81938524 0 0 Z " fill="#AECAD9" transform="translate(376,249)"/>
<path d="M0 0 C2.49505962 2.49505962 2.35948376 3.67328888 2.625 7.125 C2.69976562 8.03507813 2.77453125 8.94515625 2.8515625 9.8828125 C2.92503906 10.93082031 2.92503906 10.93082031 3 12 C2.34 12 1.68 12 1 12 C0.22596442 7.93631321 -0.0984702 4.13574827 0 0 Z " fill="#98EAF6" transform="translate(369,242)"/>
<path d="M0 0 C1.27351308 2.54702616 0.80191925 3.4282945 0.0625 6.125 C-0.13214844 6.84945312 -0.32679688 7.57390625 -0.52734375 8.3203125 C-0.68332031 8.87460938 -0.83929688 9.42890625 -1 10 C-3 9 -3 9 -3.875 7.25 C-4 5 -4 5 -2.0625 2.25 C-1.381875 1.5075 -0.70125 0.765 0 0 Z " fill="#E1E3ED" transform="translate(375,214)"/>
<path d="M0 0 C6.52307692 0.61538462 6.52307692 0.61538462 8.9375 2.5625 C9.288125 3.036875 9.63875 3.51125 10 4 C9.67 4.99 9.34 5.98 9 7 C8.01 6.01 7.02 5.02 6 4 C5.67 4.66 5.34 5.32 5 6 C4.67 4.35 4.34 2.7 4 1 C2.68 0.67 1.36 0.34 0 0 Z " fill="#94DCF3" transform="translate(423,144)"/>
<path d="M0 0 C0.66 0 1.32 0 2 0 C2.69685498 1.6210103 3.38222861 3.24696066 4.0625 4.875 C4.63677734 6.23238281 4.63677734 6.23238281 5.22265625 7.6171875 C6 10 6 10 5 12 C0.57142857 4.71428571 0.57142857 4.71428571 0 0 Z " fill="#B1BDD6" transform="translate(320,91)"/>
<path d="M0 0 C1.98 0 3.96 0 6 0 C5 2 5 2 3.2578125 2.703125 C2.55398437 2.88359375 1.85015625 3.0640625 1.125 3.25 C0.42632812 3.44078125 -0.27234375 3.6315625 -0.9921875 3.828125 C-3 4 -3 4 -6 2 C-4.02 2 -2.04 2 0 2 C0 1.34 0 0.68 0 0 Z " fill="#9DF5F2" transform="translate(227,140)"/>
<path d="M0 0 C-6.75 4 -6.75 4 -9 4 C-8 1 -8 1 -6.1875 -0.25 C-3.66056586 -1.11637742 -2.47778006 -0.88492145 0 0 Z " fill="#98E4D9" transform="translate(286,290)"/>
<path d="M0 0 C0.66 0.33 1.32 0.66 2 1 C0.02 1.99 0.02 1.99 -2 3 C-2 3.66 -2 4.32 -2 5 C-3.98 5.99 -3.98 5.99 -6 7 C-6 6.01 -6 5.02 -6 4 C-5.01 3.67 -4.02 3.34 -3 3 C-3 2.34 -3 1.68 -3 1 C-2.01 0.67 -1.02 0.34 0 0 Z " fill="#AAE0ED" transform="translate(417,176)"/>
<path d="M0 0 C0.33 0.66 0.66 1.32 1 2 C2.98 1.67 4.96 1.34 7 1 C7.33 1.66 7.66 2.32 8 3 C5.29120665 4.35439668 2.99066732 4.06501451 0 4 C-0.33 3.34 -0.66 2.68 -1 2 C-0.67 1.34 -0.34 0.68 0 0 Z " fill="#95F2F8" transform="translate(199,315)"/>
<path d="M0 0 C2.1519437 3.22791555 2.20086443 4.28400809 2 8 C0.68 8 -0.64 8 -2 8 C-1.33333333 5.33333333 -0.66666667 2.66666667 0 0 Z " fill="#87E1F5" transform="translate(375,264)"/>
<path d="M0 0 C0.99 0.33 1.98 0.66 3 1 C3 1.66 3 2.32 3 3 C3.61875 3.268125 4.2375 3.53625 4.875 3.8125 C7 5 7 5 9 8 C5.56247993 6.4722133 2.81046312 4.49818944 0 2 C0 1.34 0 0.68 0 0 Z " fill="#C2EAE6" transform="translate(176,187)"/>
<path d="M0 0 C0.33 0 0.66 0 1 0 C1 3.3 1 6.6 1 10 C0.01 10.33 -0.98 10.66 -2 11 C-1.34 7.37 -0.68 3.74 0 0 Z " fill="#BEFCFE" transform="translate(388,307)"/>
<path d="M0 0 C0.99 0 1.98 0 3 0 C2.60196439 2.88575819 2.20990931 3.82189513 -0.0625 5.75 C-0.701875 6.1625 -1.34125 6.575 -2 7 C-1.34 4.69 -0.68 2.38 0 0 Z " fill="#7DCAEF" transform="translate(430,151)"/>
<path d="M0 0 C0 0.66 0 1.32 0 2 C-2.31 3.32 -4.62 4.64 -7 6 C-7 5.01 -7 4.02 -7 3 C-2.77777778 0 -2.77777778 0 0 0 Z " fill="#D4F9FC" transform="translate(241,131)"/>
</svg>
